999
LiftPlan technical drawing export
999
Planning representation without proof of technical or regulatory conformity
999
Project: Mechanische Demo - Testdaten
999
Project ID: LP-DXF-QA
999
LiftPlan version: liftplan-project-v1
999
Export date: 2026-10-05
999
Model-space unit: millimetres
999
Drawing set: Schnitt
0
SECTION
2
HEADER
9
$ACADVER
1
AC1009
9
$DWGCODEPAGE
3
ANSI_1252
9
$LUNITS
70
2
9
$LUPREC
70
4
9
$MEASUREMENT
70
1
9
$EXTMIN
10
-2317.654545
20
-1420
30
0
9
$EXTMAX
10
3512.4
20
7220
30
0
0
ENDSEC
0
SECTION
2
TABLES
0
TABLE
2
LTYPE
70
3
0
LTYPE
2
CONTINUOUS
70
0
3
Solid line
72
65
73
0
40
0
0
LTYPE
2
CENTER
70
0
3
Center ____ _ ____ _ ____
72
65
73
4
40
175
49
100
49
-25
49
25
49
-25
0
LTYPE
2
HIDDEN
70
0
3
Hidden __ __ __ __
72
65
73
2
40
100
49
75
49
-25
0
ENDTAB
0
TABLE
2
LAYER
70
13
0
LAYER
2
0
70
0
62
7
6
CONTINUOUS
0
LAYER
2
SHAFT
70
0
62
7
6
CONTINUOUS
0
LAYER
2
CABIN
70
0
62
1
6
CONTINUOUS
0
LAYER
2
CAR_FRAME
70
0
62
3
6
CONTINUOUS
0
LAYER
2
GUIDE_RAILS
70
0
62
4
6
CONTINUOUS
0
LAYER
2
COUNTERWEIGHT
70
0
62
6
6
CONTINUOUS
0
LAYER
2
DOORS
70
0
62
2
6
CONTINUOUS
0
LAYER
2
MACHINE
70
0
62
5
6
CONTINUOUS
0
LAYER
2
BUFFERS
70
0
62
30
6
CONTINUOUS
0
LAYER
2
ROPES
70
0
62
8
6
HIDDEN
0
LAYER
2
DIMENSIONS
70
0
62
7
6
CONTINUOUS
0
LAYER
2
CENTERLINES
70
0
62
8
6
CENTER
0
LAYER
2
ANNOTATIONS
70
0
62
7
6
CONTINUOUS
0
ENDTAB
0
TABLE
2
STYLE
70
1
0
STYLE
2
STANDARD
70
0
40
0
41
1
50
0
71
0
42
100
3
txt
4

0
ENDTAB
0
ENDSEC
0
SECTION
2
BLOCKS
0
BLOCK
8
0
2
*MODEL_SPACE
70
0
10
0
20
0
30
0
3
*MODEL_SPACE
1

0
ENDBLK
8
0
0
BLOCK
8
0
2
*PAPER_SPACE
70
0
10
0
20
0
30
0
3
*PAPER_SPACE
1

0
ENDBLK
8
0
0
ENDSEC
0
SECTION
2
ENTITIES
999
Primitive: shaft-section
0
POLYLINE
8
SHAFT
6
CONTINUOUS
66
1
70
1
10
0
20
0
30
0
0
VERTEX
8
SHAFT
10
-1300
20
7000
30
0
0
VERTEX
8
SHAFT
10
1300
20
7000
30
0
0
VERTEX
8
SHAFT
10
1300
20
-1200
30
0
0
VERTEX
8
SHAFT
10
-1300
20
-1200
30
0
0
SEQEND
8
SHAFT
999
Primitive: shaft-section-axis
0
LINE
8
CENTERLINES
6
CENTER
10
0
20
7100
30
0
11
0
21
-1300
31
0
999
Primitive: pit
0
POLYLINE
8
SHAFT
6
CONTINUOUS
66
1
70
1
10
0
20
0
30
0
0
VERTEX
8
SHAFT
10
-1300
20
0
30
0
0
VERTEX
8
SHAFT
10
1300
20
0
30
0
0
VERTEX
8
SHAFT
10
1300
20
-1200
30
0
0
VERTEX
8
SHAFT
10
-1300
20
-1200
30
0
0
SEQEND
8
SHAFT
999
Primitive: pit-label
0
TEXT
8
ANNOTATIONS
6
CONTINUOUS
10
520
20
-600
30
0
40
89.454545
1
Grube
7
STANDARD
72
1
11
520
21
-600
31
0
999
Primitive: headroom
0
POLYLINE
8
SHAFT
6
CONTINUOUS
66
1
70
1
10
0
20
0
30
0
0
VERTEX
8
SHAFT
10
-1300
20
7000
30
0
0
VERTEX
8
SHAFT
10
1300
20
7000
30
0
0
VERTEX
8
SHAFT
10
1300
20
3000
30
0
0
VERTEX
8
SHAFT
10
-1300
20
3000
30
0
0
SEQEND
8
SHAFT
999
Primitive: headroom-label
0
TEXT
8
ANNOTATIONS
6
CONTINUOUS
10
520
20
5000
30
0
40
89.454545
1
Schachtkopf
7
STANDARD
72
1
11
520
21
5000
31
0
999
Primitive: level-1-line
0
LINE
8
CENTERLINES
6
CENTER
10
-1420
20
0
30
0
11
1420
21
0
31
0
999
Primitive: level-1-level-tick
0
LINE
8
CENTERLINES
6
CENTER
10
1420
20
0
30
0
11
1465
21
35
31
0
999
Primitive: level-1-label
0
TEXT
8
ANNOTATIONS
6
CONTINUOUS
10
1490
20
45
30
0
40
149.090909
1
+/-0.000 - Haltestelle 1
7
STANDARD
999
Primitive: level-2-line
0
LINE
8
CENTERLINES
6
CENTER
10
-1420
20
3000
30
0
11
1420
21
3000
31
0
999
Primitive: level-2-level-tick
0
LINE
8
CENTERLINES
6
CENTER
10
1420
20
3000
30
0
11
1465
21
3035
31
0
999
Primitive: level-2-label
0
TEXT
8
ANNOTATIONS
6
CONTINUOUS
10
1490
20
3045
30
0
40
149.090909
1
+3.000 - Haltestelle 2
7
STANDARD
999
Primitive: cabin-section
0
POLYLINE
8
CABIN
6
CONTINUOUS
66
1
70
1
10
0
20
0
30
0
0
VERTEX
8
CABIN
10
-550
20
2200
30
0
0
VERTEX
8
CABIN
10
550
20
2200
30
0
0
VERTEX
8
CABIN
10
550
20
0
30
0
0
VERTEX
8
CABIN
10
-550
20
0
30
0
0
SEQEND
8
CABIN
999
Primitive: car-upright-0-web
0
POLYLINE
8
CAR_FRAME
6
CONTINUOUS
66
1
70
1
10
0
20
0
30
0
0
VERTEX
8
CAR_FRAME
10
-683
20
2360
30
0
0
VERTEX
8
CAR_FRAME
10
-603
20
2360
30
0
0
VERTEX
8
CAR_FRAME
10
-603
20
-160
30
0
0
VERTEX
8
CAR_FRAME
10
-683
20
-160
30
0
0
SEQEND
8
CAR_FRAME
999
Primitive: car-upright-0-flange--1
0
POLYLINE
8
CAR_FRAME
6
CONTINUOUS
66
1
70
1
10
0
20
0
30
0
0
VERTEX
8
CAR_FRAME
10
-683
20
2360
30
0
0
VERTEX
8
CAR_FRAME
10
-671
20
2360
30
0
0
VERTEX
8
CAR_FRAME
10
-671
20
-160
30
0
0
VERTEX
8
CAR_FRAME
10
-683
20
-160
30
0
0
SEQEND
8
CAR_FRAME
999
Primitive: car-upright-0-flange-1
0
POLYLINE
8
CAR_FRAME
6
CONTINUOUS
66
1
70
1
10
0
20
0
30
0
0
VERTEX
8
CAR_FRAME
10
-615
20
2360
30
0
0
VERTEX
8
CAR_FRAME
10
-603
20
2360
30
0
0
VERTEX
8
CAR_FRAME
10
-603
20
-160
30
0
0
VERTEX
8
CAR_FRAME
10
-615
20
-160
30
0
0
SEQEND
8
CAR_FRAME
999
Primitive: car-upright-1-web
0
POLYLINE
8
CAR_FRAME
6
CONTINUOUS
66
1
70
1
10
0
20
0
30
0
0
VERTEX
8
CAR_FRAME
10
603
20
2360
30
0
0
VERTEX
8
CAR_FRAME
10
683
20
2360
30
0
0
VERTEX
8
CAR_FRAME
10
683
20
-160
30
0
0
VERTEX
8
CAR_FRAME
10
603
20
-160
30
0
0
SEQEND
8
CAR_FRAME
999
Primitive: car-upright-1-flange--1
0
POLYLINE
8
CAR_FRAME
6
CONTINUOUS
66
1
70
1
10
0
20
0
30
0
0
VERTEX
8
CAR_FRAME
10
603
20
2360
30
0
0
VERTEX
8
CAR_FRAME
10
615
20
2360
30
0
0
VERTEX
8
CAR_FRAME
10
615
20
-160
30
0
0
VERTEX
8
CAR_FRAME
10
603
20
-160
30
0
0
SEQEND
8
CAR_FRAME
999
Primitive: car-upright-1-flange-1
0
POLYLINE
8
CAR_FRAME
6
CONTINUOUS
66
1
70
1
10
0
20
0
30
0
0
VERTEX
8
CAR_FRAME
10
671
20
2360
30
0
0
VERTEX
8
CAR_FRAME
10
683
20
2360
30
0
0
VERTEX
8
CAR_FRAME
10
683
20
-160
30
0
0
VERTEX
8
CAR_FRAME
10
671
20
-160
30
0
0
SEQEND
8
CAR_FRAME
999
Primitive: car-crosshead
0
POLYLINE
8
CAR_FRAME
6
CONTINUOUS
66
1
70
1
10
0
20
0
30
0
0
VERTEX
8
CAR_FRAME
10
-683
20
2360
30
0
0
VERTEX
8
CAR_FRAME
10
683
20
2360
30
0
0
VERTEX
8
CAR_FRAME
10
683
20
2200
30
0
0
VERTEX
8
CAR_FRAME
10
-683
20
2200
30
0
0
SEQEND
8
CAR_FRAME
999
Primitive: car-lower-member
0
POLYLINE
8
CAR_FRAME
6
CONTINUOUS
66
1
70
1
10
0
20
0
30
0
0
VERTEX
8
CAR_FRAME
10
-683
20
0
30
0
0
VERTEX
8
CAR_FRAME
10
683
20
0
30
0
0
VERTEX
8
CAR_FRAME
10
683
20
-160
30
0
0
VERTEX
8
CAR_FRAME
10
-683
20
-160
30
0
0
SEQEND
8
CAR_FRAME
999
Primitive: car-platform-support-0
0
POLYLINE
8
CAR_FRAME
6
CONTINUOUS
66
1
70
1
10
0
20
0
30
0
0
VERTEX
8
CAR_FRAME
10
-683
20
-160
30
0
0
VERTEX
8
CAR_FRAME
10
-603
20
-160
30
0
0
VERTEX
8
CAR_FRAME
10
-603
20
-280
30
0
0
VERTEX
8
CAR_FRAME
10
-683
20
-280
30
0
0
SEQEND
8
CAR_FRAME
999
Primitive: car-platform-support-1
0
POLYLINE
8
CAR_FRAME
6
CONTINUOUS
66
1
70
1
10
0
20
0
30
0
0
VERTEX
8
CAR_FRAME
10
603
20
-160
30
0
0
VERTEX
8
CAR_FRAME
10
683
20
-160
30
0
0
VERTEX
8
CAR_FRAME
10
683
20
-280
30
0
0
VERTEX
8
CAR_FRAME
10
603
20
-280
30
0
0
SEQEND
8
CAR_FRAME
999
Primitive: car-rail-1-section
0
LINE
8
GUIDE_RAILS
6
CONTINUOUS
10
-750
20
-1200
30
0
11
-750
21
7000
31
0
999
Primitive: car-rail-2-section
0
LINE
8
GUIDE_RAILS
6
CONTINUOUS
10
750
20
-1200
30
0
11
750
21
7000
31
0
999
Primitive: counterweight-side--1-web
0
POLYLINE
8
COUNTERWEIGHT
6
CONTINUOUS
66
1
70
1
10
0
20
0
30
0
0
VERTEX
8
COUNTERWEIGHT
10
-350
20
1910
30
0
0
VERTEX
8
COUNTERWEIGHT
10
-290
20
1910
30
0
0
VERTEX
8
COUNTERWEIGHT
10
-290
20
290
30
0
0
VERTEX
8
COUNTERWEIGHT
10
-350
20
290
30
0
0
SEQEND
8
COUNTERWEIGHT
999
Primitive: counterweight-side--1-flange--1
0
POLYLINE
8
COUNTERWEIGHT
6
CONTINUOUS
66
1
70
1
10
0
20
0
30
0
0
VERTEX
8
COUNTERWEIGHT
10
-350
20
1910
30
0
0
VERTEX
8
COUNTERWEIGHT
10
-338
20
1910
30
0
0
VERTEX
8
COUNTERWEIGHT
10
-338
20
290
30
0
0
VERTEX
8
COUNTERWEIGHT
10
-350
20
290
30
0
0
SEQEND
8
COUNTERWEIGHT
999
Primitive: counterweight-side--1-flange-1
0
POLYLINE
8
COUNTERWEIGHT
6
CONTINUOUS
66
1
70
1
10
0
20
0
30
0
0
VERTEX
8
COUNTERWEIGHT
10
-302
20
1910
30
0
0
VERTEX
8
COUNTERWEIGHT
10
-290
20
1910
30
0
0
VERTEX
8
COUNTERWEIGHT
10
-290
20
290
30
0
0
VERTEX
8
COUNTERWEIGHT
10
-302
20
290
30
0
0
SEQEND
8
COUNTERWEIGHT
999
Primitive: counterweight-crossmember--1
0
POLYLINE
8
COUNTERWEIGHT
6
CONTINUOUS
66
1
70
1
10
0
20
0
30
0
0
VERTEX
8
COUNTERWEIGHT
10
-350
20
290
30
0
0
VERTEX
8
COUNTERWEIGHT
10
350
20
290
30
0
0
VERTEX
8
COUNTERWEIGHT
10
350
20
200
30
0
0
VERTEX
8
COUNTERWEIGHT
10
-350
20
200
30
0
0
SEQEND
8
COUNTERWEIGHT
999
Primitive: counterweight-side-1-web
0
POLYLINE
8
COUNTERWEIGHT
6
CONTINUOUS
66
1
70
1
10
0
20
0
30
0
0
VERTEX
8
COUNTERWEIGHT
10
290
20
1910
30
0
0
VERTEX
8
COUNTERWEIGHT
10
350
20
1910
30
0
0
VERTEX
8
COUNTERWEIGHT
10
350
20
290
30
0
0
VERTEX
8
COUNTERWEIGHT
10
290
20
290
30
0
0
SEQEND
8
COUNTERWEIGHT
999
Primitive: counterweight-side-1-flange--1
0
POLYLINE
8
COUNTERWEIGHT
6
CONTINUOUS
66
1
70
1
10
0
20
0
30
0
0
VERTEX
8
COUNTERWEIGHT
10
290
20
1910
30
0
0
VERTEX
8
COUNTERWEIGHT
10
302
20
1910
30
0
0
VERTEX
8
COUNTERWEIGHT
10
302
20
290
30
0
0
VERTEX
8
COUNTERWEIGHT
10
290
20
290
30
0
0
SEQEND
8
COUNTERWEIGHT
999
Primitive: counterweight-side-1-flange-1
0
POLYLINE
8
COUNTERWEIGHT
6
CONTINUOUS
66
1
70
1
10
0
20
0
30
0
0
VERTEX
8
COUNTERWEIGHT
10
338
20
1910
30
0
0
VERTEX
8
COUNTERWEIGHT
10
350
20
1910
30
0
0
VERTEX
8
COUNTERWEIGHT
10
350
20
290
30
0
0
VERTEX
8
COUNTERWEIGHT
10
338
20
290
30
0
0
SEQEND
8
COUNTERWEIGHT
999
Primitive: counterweight-crossmember-1
0
POLYLINE
8
COUNTERWEIGHT
6
CONTINUOUS
66
1
70
1
10
0
20
0
30
0
0
VERTEX
8
COUNTERWEIGHT
10
-350
20
2000
30
0
0
VERTEX
8
COUNTERWEIGHT
10
350
20
2000
30
0
0
VERTEX
8
COUNTERWEIGHT
10
350
20
1910
30
0
0
VERTEX
8
COUNTERWEIGHT
10
-350
20
1910
30
0
0
SEQEND
8
COUNTERWEIGHT
999
Primitive: counterweight-stack-section
0
POLYLINE
8
COUNTERWEIGHT
6
HIDDEN
66
1
70
1
10
0
20
0
30
0
0
VERTEX
8
COUNTERWEIGHT
10
-290
20
1910
30
0
0
VERTEX
8
COUNTERWEIGHT
10
290
20
1910
30
0
0
VERTEX
8
COUNTERWEIGHT
10
290
20
290
30
0
0
VERTEX
8
COUNTERWEIGHT
10
-290
20
290
30
0
0
SEQEND
8
COUNTERWEIGHT
999
Primitive: counterweight-rail-1-section
0
LINE
8
GUIDE_RAILS
6
CONTINUOUS
10
-450
20
-1200
30
0
11
-450
21
7000
31
0
999
Primitive: counterweight-rail-2-section
0
LINE
8
GUIDE_RAILS
6
CONTINUOUS
10
450
20
-1200
30
0
11
450
21
7000
31
0
999
Primitive: landing-front-level-1-opening
0
POLYLINE
8
DOORS
6
CONTINUOUS
66
1
70
1
10
0
20
0
30
0
0
VERTEX
8
DOORS
10
-450
20
2100
30
0
0
VERTEX
8
DOORS
10
450
20
2100
30
0
0
VERTEX
8
DOORS
10
450
20
0
30
0
0
VERTEX
8
DOORS
10
-450
20
0
30
0
0
SEQEND
8
DOORS
999
Primitive: landing-front-level-2-opening
0
POLYLINE
8
DOORS
6
CONTINUOUS
66
1
70
1
10
0
20
0
30
0
0
VERTEX
8
DOORS
10
-450
20
5100
30
0
0
VERTEX
8
DOORS
10
450
20
5100
30
0
0
VERTEX
8
DOORS
10
450
20
3000
30
0
0
VERTEX
8
DOORS
10
-450
20
3000
30
0
0
SEQEND
8
DOORS
999
Primitive: machine
0
POLYLINE
8
MACHINE
6
HIDDEN
66
1
70
1
10
0
20
0
30
0
0
VERTEX
8
MACHINE
10
-1050
20
6650
30
0
0
VERTEX
8
MACHINE
10
225
20
6650
30
0
0
VERTEX
8
MACHINE
10
225
20
6050
30
0
0
VERTEX
8
MACHINE
10
-1050
20
6050
30
0
0
SEQEND
8
MACHINE
999
Primitive: machine-support-0
0
POLYLINE
8
MACHINE
6
CONTINUOUS
66
1
70
1
10
0
20
0
30
0
0
VERTEX
8
MACHINE
10
-1300
20
5700
30
0
0
VERTEX
8
MACHINE
10
1300
20
5700
30
0
0
VERTEX
8
MACHINE
10
1300
20
5520
30
0
0
VERTEX
8
MACHINE
10
-1300
20
5520
30
0
0
SEQEND
8
MACHINE
999
Primitive: machine-support-1
0
POLYLINE
8
MACHINE
6
CONTINUOUS
66
1
70
1
10
0
20
0
30
0
0
VERTEX
8
MACHINE
10
-660
20
6050
30
0
0
VERTEX
8
MACHINE
10
-500
20
6050
30
0
0
VERTEX
8
MACHINE
10
-500
20
5700
30
0
0
VERTEX
8
MACHINE
10
-660
20
5700
30
0
0
SEQEND
8
MACHINE
999
Primitive: machine-support-2
0
POLYLINE
8
MACHINE
6
CONTINUOUS
66
1
70
1
10
0
20
0
30
0
0
VERTEX
8
MACHINE
10
-1300
20
5700
30
0
0
VERTEX
8
MACHINE
10
1300
20
5700
30
0
0
VERTEX
8
MACHINE
10
1300
20
5520
30
0
0
VERTEX
8
MACHINE
10
-1300
20
5520
30
0
0
SEQEND
8
MACHINE
999
Primitive: machine-support-3
0
POLYLINE
8
MACHINE
6
CONTINUOUS
66
1
70
1
10
0
20
0
30
0
0
VERTEX
8
MACHINE
10
-660
20
6050
30
0
0
VERTEX
8
MACHINE
10
-500
20
6050
30
0
0
VERTEX
8
MACHINE
10
-500
20
5700
30
0
0
VERTEX
8
MACHINE
10
-660
20
5700
30
0
0
SEQEND
8
MACHINE
999
Primitive: machine-housing
0
POLYLINE
8
MACHINE
6
CONTINUOUS
66
1
70
1
10
0
20
0
30
0
0
VERTEX
8
MACHINE
10
-710
20
6650
30
0
0
VERTEX
8
MACHINE
10
-310
20
6650
30
0
0
VERTEX
8
MACHINE
10
-310
20
6150
30
0
0
VERTEX
8
MACHINE
10
-710
20
6150
30
0
0
SEQEND
8
MACHINE
999
Primitive: machine-bearing-support
0
POLYLINE
8
MACHINE
6
CONTINUOUS
66
1
70
1
10
0
20
0
30
0
0
VERTEX
8
MACHINE
10
-310
20
6550
30
0
0
VERTEX
8
MACHINE
10
-110
20
6550
30
0
0
VERTEX
8
MACHINE
10
-110
20
6150
30
0
0
VERTEX
8
MACHINE
10
-310
20
6150
30
0
0
SEQEND
8
MACHINE
999
Primitive: machine-base
0
POLYLINE
8
MACHINE
6
CONTINUOUS
66
1
70
1
10
0
20
0
30
0
0
VERTEX
8
MACHINE
10
-1050
20
6150
30
0
0
VERTEX
8
MACHINE
10
-110
20
6150
30
0
0
VERTEX
8
MACHINE
10
-110
20
6050
30
0
0
VERTEX
8
MACHINE
10
-1050
20
6050
30
0
0
SEQEND
8
MACHINE
999
Primitive: machine-motor
0
POLYLINE
8
MACHINE
6
CONTINUOUS
66
1
70
1
10
0
20
0
30
0
0
VERTEX
8
MACHINE
10
-960
20
6625
30
0
0
VERTEX
8
MACHINE
10
-710
20
6625
30
0
0
VERTEX
8
MACHINE
10
-710
20
6175
30
0
0
VERTEX
8
MACHINE
10
-960
20
6175
30
0
0
SEQEND
8
MACHINE
999
Primitive: machine-shaft
0
POLYLINE
8
MACHINE
6
CONTINUOUS
66
1
70
1
10
0
20
0
30
0
0
VERTEX
8
MACHINE
10
-525
20
6440
30
0
0
VERTEX
8
MACHINE
10
225
20
6440
30
0
0
VERTEX
8
MACHINE
10
225
20
6360
30
0
0
VERTEX
8
MACHINE
10
-525
20
6360
30
0
0
SEQEND
8
MACHINE
999
Primitive: machine-label-leader
0
LINE
8
ANNOTATIONS
6
CONTINUOUS
10
-412.5
20
6350
30
0
11
-1195
21
6770
31
0
999
Primitive: machine-label
0
TEXT
8
ANNOTATIONS
6
CONTINUOUS
10
-1230
20
6770
30
0
40
149.090909
1
Maschine
7
STANDARD
72
2
11
-1230
21
6770
31
0
999
Primitive: traction-section
0
CIRCLE
8
MACHINE
6
CONTINUOUS
10
0
20
6400
30
0
40
578
999
Primitive: traction-axis
0
LINE
8
CENTERLINES
6
CENTER
10
-623
20
6400
30
0
11
623
21
6400
31
0
999
Primitive: sheave-label-leader
0
LINE
8
ANNOTATIONS
6
CONTINUOUS
10
0
20
6400
30
0
11
713
21
5712
31
0
999
Primitive: sheave-label
0
TEXT
8
ANNOTATIONS
6
CONTINUOUS
10
748
20
5712
30
0
40
149.090909
1
Treibscheibe
7
STANDARD
999
Primitive: suspension-rope-0-section
0
POLYLINE
8
ROPES
6
HIDDEN
66
1
70
0
10
0
20
0
30
0
0
VERTEX
8
ROPES
10
-36
20
2490
30
0
0
VERTEX
8
ROPES
10
-36
20
6400
30
0
0
VERTEX
8
ROPES
10
-36
20
6475.052561
30
0
0
VERTEX
8
ROPES
10
-36
20
6548.820951
30
0
0
VERTEX
8
ROPES
10
-36
20
6620.042974
30
0
0
VERTEX
8
ROPES
10
-36
20
6687.5
30
0
0
VERTEX
8
ROPES
10
-36
20
6750.037822
30
0
0
VERTEX
8
ROPES
10
-36
20
6806.586399
30
0
0
VERTEX
8
ROPES
10
-36
20
6856.178171
30
0
0
VERTEX
8
ROPES
10
-36
20
6897.964607
30
0
0
VERTEX
8
ROPES
10
-36
20
6931.230731
30
0
0
VERTEX
8
ROPES
10
-36
20
6955.40735
30
0
0
VERTEX
8
ROPES
10
-36
20
6970.080795
30
0
0
VERTEX
8
ROPES
10
-36
20
6975
30
0
0
VERTEX
8
ROPES
10
-36
20
6970.080795
30
0
0
VERTEX
8
ROPES
10
-36
20
6955.40735
30
0
0
VERTEX
8
ROPES
10
-36
20
6931.230731
30
0
0
VERTEX
8
ROPES
10
-36
20
6897.964607
30
0
0
VERTEX
8
ROPES
10
-36
20
6856.178171
30
0
0
VERTEX
8
ROPES
10
-36
20
6806.586399
30
0
0
VERTEX
8
ROPES
10
-36
20
6750.037822
30
0
0
VERTEX
8
ROPES
10
-36
20
6687.5
30
0
0
VERTEX
8
ROPES
10
-36
20
6620.042974
30
0
0
VERTEX
8
ROPES
10
-36
20
6548.820951
30
0
0
VERTEX
8
ROPES
10
-36
20
6475.052561
30
0
0
VERTEX
8
ROPES
10
-36
20
6400
30
0
0
VERTEX
8
ROPES
10
-36
20
2130
30
0
0
SEQEND
8
ROPES
999
Primitive: suspension-rope-1-section
0
POLYLINE
8
ROPES
6
HIDDEN
66
1
70
0
10
0
20
0
30
0
0
VERTEX
8
ROPES
10
-12
20
2490
30
0
0
VERTEX
8
ROPES
10
-12
20
6400
30
0
0
VERTEX
8
ROPES
10
-12
20
6475.052561
30
0
0
VERTEX
8
ROPES
10
-12
20
6548.820951
30
0
0
VERTEX
8
ROPES
10
-12
20
6620.042974
30
0
0
VERTEX
8
ROPES
10
-12
20
6687.5
30
0
0
VERTEX
8
ROPES
10
-12
20
6750.037822
30
0
0
VERTEX
8
ROPES
10
-12
20
6806.586399
30
0
0
VERTEX
8
ROPES
10
-12
20
6856.178171
30
0
0
VERTEX
8
ROPES
10
-12
20
6897.964607
30
0
0
VERTEX
8
ROPES
10
-12
20
6931.230731
30
0
0
VERTEX
8
ROPES
10
-12
20
6955.40735
30
0
0
VERTEX
8
ROPES
10
-12
20
6970.080795
30
0
0
VERTEX
8
ROPES
10
-12
20
6975
30
0
0
VERTEX
8
ROPES
10
-12
20
6970.080795
30
0
0
VERTEX
8
ROPES
10
-12
20
6955.40735
30
0
0
VERTEX
8
ROPES
10
-12
20
6931.230731
30
0
0
VERTEX
8
ROPES
10
-12
20
6897.964607
30
0
0
VERTEX
8
ROPES
10
-12
20
6856.178171
30
0
0
VERTEX
8
ROPES
10
-12
20
6806.586399
30
0
0
VERTEX
8
ROPES
10
-12
20
6750.037822
30
0
0
VERTEX
8
ROPES
10
-12
20
6687.5
30
0
0
VERTEX
8
ROPES
10
-12
20
6620.042974
30
0
0
VERTEX
8
ROPES
10
-12
20
6548.820951
30
0
0
VERTEX
8
ROPES
10
-12
20
6475.052561
30
0
0
VERTEX
8
ROPES
10
-12
20
6400
30
0
0
VERTEX
8
ROPES
10
-12
20
2130
30
0
0
SEQEND
8
ROPES
999
Primitive: suspension-rope-2-section
0
POLYLINE
8
ROPES
6
HIDDEN
66
1
70
0
10
0
20
0
30
0
0
VERTEX
8
ROPES
10
12
20
2490
30
0
0
VERTEX
8
ROPES
10
12
20
6400
30
0
0
VERTEX
8
ROPES
10
12
20
6475.052561
30
0
0
VERTEX
8
ROPES
10
12
20
6548.820951
30
0
0
VERTEX
8
ROPES
10
12
20
6620.042974
30
0
0
VERTEX
8
ROPES
10
12
20
6687.5
30
0
0
VERTEX
8
ROPES
10
12
20
6750.037822
30
0
0
VERTEX
8
ROPES
10
12
20
6806.586399
30
0
0
VERTEX
8
ROPES
10
12
20
6856.178171
30
0
0
VERTEX
8
ROPES
10
12
20
6897.964607
30
0
0
VERTEX
8
ROPES
10
12
20
6931.230731
30
0
0
VERTEX
8
ROPES
10
12
20
6955.40735
30
0
0
VERTEX
8
ROPES
10
12
20
6970.080795
30
0
0
VERTEX
8
ROPES
10
12
20
6975
30
0
0
VERTEX
8
ROPES
10
12
20
6970.080795
30
0
0
VERTEX
8
ROPES
10
12
20
6955.40735
30
0
0
VERTEX
8
ROPES
10
12
20
6931.230731
30
0
0
VERTEX
8
ROPES
10
12
20
6897.964607
30
0
0
VERTEX
8
ROPES
10
12
20
6856.178171
30
0
0
VERTEX
8
ROPES
10
12
20
6806.586399
30
0
0
VERTEX
8
ROPES
10
12
20
6750.037822
30
0
0
VERTEX
8
ROPES
10
12
20
6687.5
30
0
0
VERTEX
8
ROPES
10
12
20
6620.042974
30
0
0
VERTEX
8
ROPES
10
12
20
6548.820951
30
0
0
VERTEX
8
ROPES
10
12
20
6475.052561
30
0
0
VERTEX
8
ROPES
10
12
20
6400
30
0
0
VERTEX
8
ROPES
10
12
20
2130
30
0
0
SEQEND
8
ROPES
999
Primitive: suspension-rope-3-section
0
POLYLINE
8
ROPES
6
HIDDEN
66
1
70
0
10
0
20
0
30
0
0
VERTEX
8
ROPES
10
36
20
2490
30
0
0
VERTEX
8
ROPES
10
36
20
6400
30
0
0
VERTEX
8
ROPES
10
36
20
6475.052561
30
0
0
VERTEX
8
ROPES
10
36
20
6548.820951
30
0
0
VERTEX
8
ROPES
10
36
20
6620.042974
30
0
0
VERTEX
8
ROPES
10
36
20
6687.5
30
0
0
VERTEX
8
ROPES
10
36
20
6750.037822
30
0
0
VERTEX
8
ROPES
10
36
20
6806.586399
30
0
0
VERTEX
8
ROPES
10
36
20
6856.178171
30
0
0
VERTEX
8
ROPES
10
36
20
6897.964607
30
0
0
VERTEX
8
ROPES
10
36
20
6931.230731
30
0
0
VERTEX
8
ROPES
10
36
20
6955.40735
30
0
0
VERTEX
8
ROPES
10
36
20
6970.080795
30
0
0
VERTEX
8
ROPES
10
36
20
6975
30
0
0
VERTEX
8
ROPES
10
36
20
6970.080795
30
0
0
VERTEX
8
ROPES
10
36
20
6955.40735
30
0
0
VERTEX
8
ROPES
10
36
20
6931.230731
30
0
0
VERTEX
8
ROPES
10
36
20
6897.964607
30
0
0
VERTEX
8
ROPES
10
36
20
6856.178171
30
0
0
VERTEX
8
ROPES
10
36
20
6806.586399
30
0
0
VERTEX
8
ROPES
10
36
20
6750.037822
30
0
0
VERTEX
8
ROPES
10
36
20
6687.5
30
0
0
VERTEX
8
ROPES
10
36
20
6620.042974
30
0
0
VERTEX
8
ROPES
10
36
20
6548.820951
30
0
0
VERTEX
8
ROPES
10
36
20
6475.052561
30
0
0
VERTEX
8
ROPES
10
36
20
6400
30
0
0
VERTEX
8
ROPES
10
36
20
2130
30
0
0
SEQEND
8
ROPES
999
Primitive: governor-wheel-section
0
CIRCLE
8
MACHINE
6
CONTINUOUS
10
0
20
6600
30
0
40
203
999
Primitive: governor-housing-0
0
POLYLINE
8
MACHINE
6
CONTINUOUS
66
1
70
1
10
0
20
0
30
0
0
VERTEX
8
MACHINE
10
-60
20
6645
30
0
0
VERTEX
8
MACHINE
10
-40
20
6645
30
0
0
VERTEX
8
MACHINE
10
-40
20
6555
30
0
0
VERTEX
8
MACHINE
10
-60
20
6555
30
0
0
SEQEND
8
MACHINE
999
Primitive: governor-housing-1
0
POLYLINE
8
MACHINE
6
CONTINUOUS
66
1
70
1
10
0
20
0
30
0
0
VERTEX
8
MACHINE
10
-60
20
6555
30
0
0
VERTEX
8
MACHINE
10
-40
20
6555
30
0
0
VERTEX
8
MACHINE
10
-40
20
6380
30
0
0
VERTEX
8
MACHINE
10
-60
20
6380
30
0
0
SEQEND
8
MACHINE
999
Primitive: governor-housing-2
0
POLYLINE
8
MACHINE
6
CONTINUOUS
66
1
70
1
10
0
20
0
30
0
0
VERTEX
8
MACHINE
10
40
20
6645
30
0
0
VERTEX
8
MACHINE
10
60
20
6645
30
0
0
VERTEX
8
MACHINE
10
60
20
6555
30
0
0
VERTEX
8
MACHINE
10
40
20
6555
30
0
0
SEQEND
8
MACHINE
999
Primitive: governor-housing-3
0
POLYLINE
8
MACHINE
6
CONTINUOUS
66
1
70
1
10
0
20
0
30
0
0
VERTEX
8
MACHINE
10
40
20
6555
30
0
0
VERTEX
8
MACHINE
10
60
20
6555
30
0
0
VERTEX
8
MACHINE
10
60
20
6380
30
0
0
VERTEX
8
MACHINE
10
40
20
6380
30
0
0
SEQEND
8
MACHINE
999
Primitive: governor-base
0
POLYLINE
8
MACHINE
6
CONTINUOUS
66
1
70
1
10
0
20
0
30
0
0
VERTEX
8
MACHINE
10
-70
20
6380
30
0
0
VERTEX
8
MACHINE
10
70
20
6380
30
0
0
VERTEX
8
MACHINE
10
70
20
6340
30
0
0
VERTEX
8
MACHINE
10
-70
20
6340
30
0
0
SEQEND
8
MACHINE
999
Primitive: governor-support-0
0
POLYLINE
8
MACHINE
6
CONTINUOUS
66
1
70
1
10
0
20
0
30
0
0
VERTEX
8
MACHINE
10
-70
20
6380
30
0
0
VERTEX
8
MACHINE
10
-50
20
6380
30
0
0
VERTEX
8
MACHINE
10
-50
20
6340
30
0
0
VERTEX
8
MACHINE
10
-70
20
6340
30
0
0
SEQEND
8
MACHINE
999
Primitive: governor-support-1
0
POLYLINE
8
MACHINE
6
CONTINUOUS
66
1
70
1
10
0
20
0
30
0
0
VERTEX
8
MACHINE
10
50
20
6380
30
0
0
VERTEX
8
MACHINE
10
70
20
6380
30
0
0
VERTEX
8
MACHINE
10
70
20
6340
30
0
0
VERTEX
8
MACHINE
10
50
20
6340
30
0
0
SEQEND
8
MACHINE
999
Primitive: tension-wheel-section
0
CIRCLE
8
MACHINE
6
CONTINUOUS
10
0
20
-850
30
0
40
203
999
Primitive: tension-housing-0
0
POLYLINE
8
MACHINE
6
CONTINUOUS
66
1
70
1
10
0
20
0
30
0
0
VERTEX
8
MACHINE
10
-60
20
-805
30
0
0
VERTEX
8
MACHINE
10
-40
20
-805
30
0
0
VERTEX
8
MACHINE
10
-40
20
-895
30
0
0
VERTEX
8
MACHINE
10
-60
20
-895
30
0
0
SEQEND
8
MACHINE
999
Primitive: tension-housing-1
0
POLYLINE
8
MACHINE
6
CONTINUOUS
66
1
70
1
10
0
20
0
30
0
0
VERTEX
8
MACHINE
10
-60
20
-895
30
0
0
VERTEX
8
MACHINE
10
-40
20
-895
30
0
0
VERTEX
8
MACHINE
10
-40
20
-1070
30
0
0
VERTEX
8
MACHINE
10
-60
20
-1070
30
0
0
SEQEND
8
MACHINE
999
Primitive: tension-housing-2
0
POLYLINE
8
MACHINE
6
CONTINUOUS
66
1
70
1
10
0
20
0
30
0
0
VERTEX
8
MACHINE
10
40
20
-805
30
0
0
VERTEX
8
MACHINE
10
60
20
-805
30
0
0
VERTEX
8
MACHINE
10
60
20
-895
30
0
0
VERTEX
8
MACHINE
10
40
20
-895
30
0
0
SEQEND
8
MACHINE
999
Primitive: tension-housing-3
0
POLYLINE
8
MACHINE
6
CONTINUOUS
66
1
70
1
10
0
20
0
30
0
0
VERTEX
8
MACHINE
10
40
20
-895
30
0
0
VERTEX
8
MACHINE
10
60
20
-895
30
0
0
VERTEX
8
MACHINE
10
60
20
-1070
30
0
0
VERTEX
8
MACHINE
10
40
20
-1070
30
0
0
SEQEND
8
MACHINE
999
Primitive: tension-base
0
POLYLINE
8
MACHINE
6
CONTINUOUS
66
1
70
1
10
0
20
0
30
0
0
VERTEX
8
MACHINE
10
-70
20
-1070
30
0
0
VERTEX
8
MACHINE
10
70
20
-1070
30
0
0
VERTEX
8
MACHINE
10
70
20
-1110
30
0
0
VERTEX
8
MACHINE
10
-70
20
-1110
30
0
0
SEQEND
8
MACHINE
999
Primitive: tension-support-0
0
POLYLINE
8
MACHINE
6
CONTINUOUS
66
1
70
1
10
0
20
0
30
0
0
VERTEX
8
MACHINE
10
-70
20
-1110
30
0
0
VERTEX
8
MACHINE
10
-50
20
-1110
30
0
0
VERTEX
8
MACHINE
10
-50
20
-1200
30
0
0
VERTEX
8
MACHINE
10
-70
20
-1200
30
0
0
SEQEND
8
MACHINE
999
Primitive: tension-support-1
0
POLYLINE
8
MACHINE
6
CONTINUOUS
66
1
70
1
10
0
20
0
30
0
0
VERTEX
8
MACHINE
10
50
20
-1110
30
0
0
VERTEX
8
MACHINE
10
70
20
-1110
30
0
0
VERTEX
8
MACHINE
10
70
20
-1200
30
0
0
VERTEX
8
MACHINE
10
50
20
-1200
30
0
0
SEQEND
8
MACHINE
999
Primitive: tension-tension-device
0
POLYLINE
8
MACHINE
6
CONTINUOUS
66
1
70
1
10
0
20
0
30
0
0
VERTEX
8
MACHINE
10
-50
20
-1110
30
0
0
VERTEX
8
MACHINE
10
50
20
-1110
30
0
0
VERTEX
8
MACHINE
10
50
20
-1200
30
0
0
VERTEX
8
MACHINE
10
-50
20
-1200
30
0
0
SEQEND
8
MACHINE
999
Primitive: governor-rope-section
0
POLYLINE
8
ROPES
6
HIDDEN
66
1
70
1
10
0
20
0
30
0
0
VERTEX
8
ROPES
10
0
20
6600
30
0
0
VERTEX
8
ROPES
10
0
20
6626.105238
30
0
0
VERTEX
8
ROPES
10
0
20
6651.763809
30
0
0
VERTEX
8
ROPES
10
0
20
6676.536686
30
0
0
VERTEX
8
ROPES
10
0
20
6700
30
0
0
VERTEX
8
ROPES
10
0
20
6721.752286
30
0
0
VERTEX
8
ROPES
10
0
20
6741.421356
30
0
0
VERTEX
8
ROPES
10
0
20
6758.670668
30
0
0
VERTEX
8
ROPES
10
0
20
6773.205081
30
0
0
VERTEX
8
ROPES
10
0
20
6784.775907
30
0
0
VERTEX
8
ROPES
10
0
20
6793.185165
30
0
0
VERTEX
8
ROPES
10
0
20
6798.288972
30
0
0
VERTEX
8
ROPES
10
0
20
6800
30
0
0
VERTEX
8
ROPES
10
0
20
6798.288972
30
0
0
VERTEX
8
ROPES
10
0
20
6793.185165
30
0
0
VERTEX
8
ROPES
10
0
20
6784.775907
30
0
0
VERTEX
8
ROPES
10
0
20
6773.205081
30
0
0
VERTEX
8
ROPES
10
0
20
6758.670668
30
0
0
VERTEX
8
ROPES
10
0
20
6741.421356
30
0
0
VERTEX
8
ROPES
10
0
20
6721.752286
30
0
0
VERTEX
8
ROPES
10
0
20
6700
30
0
0
VERTEX
8
ROPES
10
0
20
6676.536686
30
0
0
VERTEX
8
ROPES
10
0
20
6651.763809
30
0
0
VERTEX
8
ROPES
10
0
20
6626.105238
30
0
0
VERTEX
8
ROPES
10
0
20
6600
30
0
0
VERTEX
8
ROPES
10
0
20
-340
30
0
0
VERTEX
8
ROPES
10
0
20
-850
30
0
0
VERTEX
8
ROPES
10
0
20
-876.105238
30
0
0
VERTEX
8
ROPES
10
0
20
-901.763809
30
0
0
VERTEX
8
ROPES
10
0
20
-926.536686
30
0
0
VERTEX
8
ROPES
10
0
20
-950
30
0
0
VERTEX
8
ROPES
10
0
20
-971.752286
30
0
0
VERTEX
8
ROPES
10
0
20
-991.421356
30
0
0
VERTEX
8
ROPES
10
0
20
-1008.670668
30
0
0
VERTEX
8
ROPES
10
0
20
-1023.205081
30
0
0
VERTEX
8
ROPES
10
0
20
-1034.775907
30
0
0
VERTEX
8
ROPES
10
0
20
-1043.185165
30
0
0
VERTEX
8
ROPES
10
0
20
-1048.288972
30
0
0
VERTEX
8
ROPES
10
0
20
-1050
30
0
0
VERTEX
8
ROPES
10
0
20
-1048.288972
30
0
0
VERTEX
8
ROPES
10
0
20
-1043.185165
30
0
0
VERTEX
8
ROPES
10
0
20
-1034.775907
30
0
0
VERTEX
8
ROPES
10
0
20
-1023.205081
30
0
0
VERTEX
8
ROPES
10
0
20
-1008.670668
30
0
0
VERTEX
8
ROPES
10
0
20
-991.421356
30
0
0
VERTEX
8
ROPES
10
0
20
-971.752286
30
0
0
VERTEX
8
ROPES
10
0
20
-950
30
0
0
VERTEX
8
ROPES
10
0
20
-926.536686
30
0
0
VERTEX
8
ROPES
10
0
20
-901.763809
30
0
0
VERTEX
8
ROPES
10
0
20
-876.105238
30
0
0
VERTEX
8
ROPES
10
0
20
-850
30
0
0
VERTEX
8
ROPES
10
0
20
6600
30
0
0
SEQEND
8
ROPES
999
Primitive: buffer-0
0
POLYLINE
8
BUFFERS
6
CONTINUOUS
66
1
70
1
10
0
20
0
30
0
0
VERTEX
8
BUFFERS
10
-470
20
-1170
30
0
0
VERTEX
8
BUFFERS
10
-230
20
-1170
30
0
0
VERTEX
8
BUFFERS
10
-230
20
-1200
30
0
0
VERTEX
8
BUFFERS
10
-470
20
-1200
30
0
0
SEQEND
8
BUFFERS
999
Primitive: buffer-1
0
POLYLINE
8
BUFFERS
6
CONTINUOUS
66
1
70
1
10
0
20
0
30
0
0
VERTEX
8
BUFFERS
10
230
20
-1170
30
0
0
VERTEX
8
BUFFERS
10
470
20
-1170
30
0
0
VERTEX
8
BUFFERS
10
470
20
-1200
30
0
0
VERTEX
8
BUFFERS
10
230
20
-1200
30
0
0
SEQEND
8
BUFFERS
999
Primitive: buffer-2
0
POLYLINE
8
BUFFERS
6
CONTINUOUS
66
1
70
1
10
0
20
0
30
0
0
VERTEX
8
BUFFERS
10
-430
20
-750
30
0
0
VERTEX
8
BUFFERS
10
-270
20
-750
30
0
0
VERTEX
8
BUFFERS
10
-270
20
-1170
30
0
0
VERTEX
8
BUFFERS
10
-430
20
-1170
30
0
0
SEQEND
8
BUFFERS
999
Primitive: buffer-3
0
POLYLINE
8
BUFFERS
6
CONTINUOUS
66
1
70
1
10
0
20
0
30
0
0
VERTEX
8
BUFFERS
10
-387.5
20
-450
30
0
0
VERTEX
8
BUFFERS
10
-312.5
20
-450
30
0
0
VERTEX
8
BUFFERS
10
-312.5
20
-750
30
0
0
VERTEX
8
BUFFERS
10
-387.5
20
-750
30
0
0
SEQEND
8
BUFFERS
999
Primitive: buffer-4
0
POLYLINE
8
BUFFERS
6
CONTINUOUS
66
1
70
1
10
0
20
0
30
0
0
VERTEX
8
BUFFERS
10
-440
20
-420
30
0
0
VERTEX
8
BUFFERS
10
-260
20
-420
30
0
0
VERTEX
8
BUFFERS
10
-260
20
-450
30
0
0
VERTEX
8
BUFFERS
10
-440
20
-450
30
0
0
SEQEND
8
BUFFERS
999
Primitive: buffer-5
0
POLYLINE
8
BUFFERS
6
CONTINUOUS
66
1
70
1
10
0
20
0
30
0
0
VERTEX
8
BUFFERS
10
270
20
-750
30
0
0
VERTEX
8
BUFFERS
10
430
20
-750
30
0
0
VERTEX
8
BUFFERS
10
430
20
-1170
30
0
0
VERTEX
8
BUFFERS
10
270
20
-1170
30
0
0
SEQEND
8
BUFFERS
999
Primitive: buffer-6
0
POLYLINE
8
BUFFERS
6
CONTINUOUS
66
1
70
1
10
0
20
0
30
0
0
VERTEX
8
BUFFERS
10
312.5
20
-450
30
0
0
VERTEX
8
BUFFERS
10
387.5
20
-450
30
0
0
VERTEX
8
BUFFERS
10
387.5
20
-750
30
0
0
VERTEX
8
BUFFERS
10
312.5
20
-750
30
0
0
SEQEND
8
BUFFERS
999
Primitive: buffer-7
0
POLYLINE
8
BUFFERS
6
CONTINUOUS
66
1
70
1
10
0
20
0
30
0
0
VERTEX
8
BUFFERS
10
260
20
-420
30
0
0
VERTEX
8
BUFFERS
10
440
20
-420
30
0
0
VERTEX
8
BUFFERS
10
440
20
-450
30
0
0
VERTEX
8
BUFFERS
10
260
20
-450
30
0
0
SEQEND
8
BUFFERS
999
Primitive: buffer-8
0
POLYLINE
8
BUFFERS
6
CONTINUOUS
66
1
70
1
10
0
20
0
30
0
0
VERTEX
8
BUFFERS
10
-95
20
-1175
30
0
0
VERTEX
8
BUFFERS
10
95
20
-1175
30
0
0
VERTEX
8
BUFFERS
10
95
20
-1200
30
0
0
VERTEX
8
BUFFERS
10
-95
20
-1200
30
0
0
SEQEND
8
BUFFERS
999
Primitive: buffer-9
0
POLYLINE
8
BUFFERS
6
CONTINUOUS
66
1
70
1
10
0
20
0
30
0
0
VERTEX
8
BUFFERS
10
-65
20
-815
30
0
0
VERTEX
8
BUFFERS
10
65
20
-815
30
0
0
VERTEX
8
BUFFERS
10
65
20
-1175
30
0
0
VERTEX
8
BUFFERS
10
-65
20
-1175
30
0
0
SEQEND
8
BUFFERS
999
Primitive: buffer-10
0
POLYLINE
8
BUFFERS
6
CONTINUOUS
66
1
70
1
10
0
20
0
30
0
0
VERTEX
8
BUFFERS
10
-32.5
20
-535
30
0
0
VERTEX
8
BUFFERS
10
32.5
20
-535
30
0
0
VERTEX
8
BUFFERS
10
32.5
20
-815
30
0
0
VERTEX
8
BUFFERS
10
-32.5
20
-815
30
0
0
SEQEND
8
BUFFERS
999
Primitive: buffer-11
0
POLYLINE
8
BUFFERS
6
CONTINUOUS
66
1
70
1
10
0
20
0
30
0
0
VERTEX
8
BUFFERS
10
-75
20
-510
30
0
0
VERTEX
8
BUFFERS
10
75
20
-510
30
0
0
VERTEX
8
BUFFERS
10
75
20
-535
30
0
0
VERTEX
8
BUFFERS
10
-75
20
-535
30
0
0
SEQEND
8
BUFFERS
999
Primitive: installation-height
0
LINE
8
DIMENSIONS
6
CONTINUOUS
10
-1300
20
7000
30
0
11
-1950
21
7000
31
0
0
LINE
8
DIMENSIONS
6
CONTINUOUS
10
-1300
20
-1200
30
0
11
-1950
21
-1200
31
0
0
LINE
8
DIMENSIONS
6
CONTINUOUS
10
-1950
20
7000
30
0
11
-1950
21
-1200
31
0
0
LINE
8
DIMENSIONS
6
CONTINUOUS
10
-1950
20
7000
30
0
11
-1918.690909
21
6910.545455
31
0
0
LINE
8
DIMENSIONS
6
CONTINUOUS
10
-1950
20
7000
30
0
11
-1981.309091
21
6910.545455
31
0
0
LINE
8
DIMENSIONS
6
CONTINUOUS
10
-1950
20
-1200
30
0
11
-1981.309091
21
-1110.545455
31
0
0
LINE
8
DIMENSIONS
6
CONTINUOUS
10
-1950
20
-1200
30
0
11
-1918.690909
21
-1110.545455
31
0
0
TEXT
8
DIMENSIONS
6
CONTINUOUS
10
-1895
20
2900
30
0
40
149.090909
1
8200 mm
7
STANDARD
72
1
11
-1895
21
2900
31
0
999
Primitive: pit-depth
0
LINE
8
DIMENSIONS
6
CONTINUOUS
10
-1300
20
0
30
0
11
-1660
21
0
31
0
0
LINE
8
DIMENSIONS
6
CONTINUOUS
10
-1300
20
-1200
30
0
11
-1660
21
-1200
31
0
0
LINE
8
DIMENSIONS
6
CONTINUOUS
10
-1660
20
0
30
0
11
-1660
21
-1200
31
0
0
LINE
8
DIMENSIONS
6
CONTINUOUS
10
-1660
20
0
30
0
11
-1628.690909
21
-89.454545
31
0
0
LINE
8
DIMENSIONS
6
CONTINUOUS
10
-1660
20
0
30
0
11
-1691.309091
21
-89.454545
31
0
0
LINE
8
DIMENSIONS
6
CONTINUOUS
10
-1660
20
-1200
30
0
11
-1691.309091
21
-1110.545455
31
0
0
LINE
8
DIMENSIONS
6
CONTINUOUS
10
-1660
20
-1200
30
0
11
-1628.690909
21
-1110.545455
31
0
0
TEXT
8
DIMENSIONS
6
CONTINUOUS
10
-1605
20
-600
30
0
40
149.090909
1
1200 mm
7
STANDARD
72
1
11
-1605
21
-600
31
0
999
Primitive: headroom-height
0
LINE
8
DIMENSIONS
6
CONTINUOUS
10
-1300
20
7000
30
0
11
-1660
21
7000
31
0
0
LINE
8
DIMENSIONS
6
CONTINUOUS
10
-1300
20
3000
30
0
11
-1660
21
3000
31
0
0
LINE
8
DIMENSIONS
6
CONTINUOUS
10
-1660
20
7000
30
0
11
-1660
21
3000
31
0
0
LINE
8
DIMENSIONS
6
CONTINUOUS
10
-1660
20
7000
30
0
11
-1628.690909
21
6910.545455
31
0
0
LINE
8
DIMENSIONS
6
CONTINUOUS
10
-1660
20
7000
30
0
11
-1691.309091
21
6910.545455
31
0
0
LINE
8
DIMENSIONS
6
CONTINUOUS
10
-1660
20
3000
30
0
11
-1691.309091
21
3089.454545
31
0
0
LINE
8
DIMENSIONS
6
CONTINUOUS
10
-1660
20
3000
30
0
11
-1628.690909
21
3089.454545
31
0
0
TEXT
8
DIMENSIONS
6
CONTINUOUS
10
-1605
20
5000
30
0
40
149.090909
1
4000 mm
7
STANDARD
72
1
11
-1605
21
5000
31
0
999
Primitive: storey-1
0
LINE
8
DIMENSIONS
6
CONTINUOUS
10
1300
20
3000
30
0
11
1820
21
3000
31
0
0
LINE
8
DIMENSIONS
6
CONTINUOUS
10
1300
20
0
30
0
11
1820
21
0
31
0
0
LINE
8
DIMENSIONS
6
CONTINUOUS
10
1820
20
3000
30
0
11
1820
21
0
31
0
0
LINE
8
DIMENSIONS
6
CONTINUOUS
10
1820
20
3000
30
0
11
1851.309091
21
2910.545455
31
0
0
LINE
8
DIMENSIONS
6
CONTINUOUS
10
1820
20
3000
30
0
11
1788.690909
21
2910.545455
31
0
0
LINE
8
DIMENSIONS
6
CONTINUOUS
10
1820
20
0
30
0
11
1788.690909
21
89.454545
31
0
0
LINE
8
DIMENSIONS
6
CONTINUOUS
10
1820
20
0
30
0
11
1851.309091
21
89.454545
31
0
0
TEXT
8
DIMENSIONS
6
CONTINUOUS
10
1875
20
1500
30
0
40
149.090909
1
3000 mm
7
STANDARD
72
1
11
1875
21
1500
31
0
0
ENDSEC
0
EOF
