999
LiftPlan technical drawing export
999
Planning representation without proof of technical or regulatory conformity
999
Project: Mechanische Demo - Testdaten
999
Project ID: LP-DXF-QA
999
LiftPlan version: liftplan-project-v1
999
Export date: 2026-10-05
999
Model-space unit: millimetres
999
Drawing set: Grundriss
0
SECTION
2
HEADER
9
$ACADVER
1
AC1009
9
$DWGCODEPAGE
3
ANSI_1252
9
$LUNITS
70
2
9
$LUPREC
70
4
9
$MEASUREMENT
70
1
9
$EXTMIN
10
-1540
20
-1920
30
0
9
$EXTMAX
10
1978
20
1740
30
0
0
ENDSEC
0
SECTION
2
TABLES
0
TABLE
2
LTYPE
70
3
0
LTYPE
2
CONTINUOUS
70
0
3
Solid line
72
65
73
0
40
0
0
LTYPE
2
CENTER
70
0
3
Center ____ _ ____ _ ____
72
65
73
4
40
175
49
100
49
-25
49
25
49
-25
0
LTYPE
2
HIDDEN
70
0
3
Hidden __ __ __ __
72
65
73
2
40
100
49
75
49
-25
0
ENDTAB
0
TABLE
2
LAYER
70
13
0
LAYER
2
0
70
0
62
7
6
CONTINUOUS
0
LAYER
2
SHAFT
70
0
62
7
6
CONTINUOUS
0
LAYER
2
CABIN
70
0
62
1
6
CONTINUOUS
0
LAYER
2
CAR_FRAME
70
0
62
3
6
CONTINUOUS
0
LAYER
2
GUIDE_RAILS
70
0
62
4
6
CONTINUOUS
0
LAYER
2
COUNTERWEIGHT
70
0
62
6
6
CONTINUOUS
0
LAYER
2
DOORS
70
0
62
2
6
CONTINUOUS
0
LAYER
2
MACHINE
70
0
62
5
6
CONTINUOUS
0
LAYER
2
BUFFERS
70
0
62
30
6
CONTINUOUS
0
LAYER
2
ROPES
70
0
62
8
6
HIDDEN
0
LAYER
2
DIMENSIONS
70
0
62
7
6
CONTINUOUS
0
LAYER
2
CENTERLINES
70
0
62
8
6
CENTER
0
LAYER
2
ANNOTATIONS
70
0
62
7
6
CONTINUOUS
0
ENDTAB
0
TABLE
2
STYLE
70
1
0
STYLE
2
STANDARD
70
0
40
0
41
1
50
0
71
0
42
100
3
txt
4

0
ENDTAB
0
ENDSEC
0
SECTION
2
BLOCKS
0
BLOCK
8
0
2
*MODEL_SPACE
70
0
10
0
20
0
30
0
3
*MODEL_SPACE
1

0
ENDBLK
8
0
0
BLOCK
8
0
2
*PAPER_SPACE
70
0
10
0
20
0
30
0
3
*PAPER_SPACE
1

0
ENDBLK
8
0
0
ENDSEC
0
SECTION
2
ENTITIES
999
Primitive: shaft
0
POLYLINE
8
SHAFT
6
CONTINUOUS
66
1
70
1
10
0
20
0
30
0
0
VERTEX
8
SHAFT
10
-1300
20
1500
30
0
0
VERTEX
8
SHAFT
10
1300
20
1500
30
0
0
VERTEX
8
SHAFT
10
1300
20
-1500
30
0
0
VERTEX
8
SHAFT
10
-1300
20
-1500
30
0
0
SEQEND
8
SHAFT
999
Primitive: shaft-axis-x
0
LINE
8
CENTERLINES
6
CENTER
10
-1420
20
0
30
0
11
1420
21
0
31
0
999
Primitive: shaft-axis-z
0
LINE
8
CENTERLINES
6
CENTER
10
0
20
1620
30
0
11
0
21
-1620
31
0
999
Primitive: shaft-label
0
TEXT
8
ANNOTATIONS
6
CONTINUOUS
10
-1180
20
1330
30
0
40
105
1
Schacht
7
STANDARD
999
Primitive: cabin
0
POLYLINE
8
CABIN
6
CONTINUOUS
66
1
70
1
10
0
20
0
30
0
0
VERTEX
8
CABIN
10
-550
20
700
30
0
0
VERTEX
8
CABIN
10
550
20
700
30
0
0
VERTEX
8
CABIN
10
550
20
-700
30
0
0
VERTEX
8
CABIN
10
-550
20
-700
30
0
0
SEQEND
8
CABIN
999
Primitive: cabin-axis-x
0
LINE
8
CENTERLINES
6
CENTER
10
-630
20
0
30
0
11
630
21
0
31
0
999
Primitive: cabin-axis-z
0
LINE
8
CENTERLINES
6
CENTER
10
0
20
780
30
0
11
0
21
-780
31
0
999
Primitive: cabin-label-leader
0
LINE
8
ANNOTATIONS
6
CONTINUOUS
10
550
20
0
30
0
11
685
21
-120
31
0
999
Primitive: cabin-label
0
TEXT
8
ANNOTATIONS
6
CONTINUOUS
10
720
20
-120
30
0
40
110
1
Kabine
7
STANDARD
999
Primitive: car-upright-0-web
0
POLYLINE
8
CAR_FRAME
6
CONTINUOUS
66
1
70
1
10
0
20
0
30
0
0
VERTEX
8
CAR_FRAME
10
-683
20
-58
30
0
0
VERTEX
8
CAR_FRAME
10
-603
20
-58
30
0
0
VERTEX
8
CAR_FRAME
10
-603
20
-70
30
0
0
VERTEX
8
CAR_FRAME
10
-683
20
-70
30
0
0
SEQEND
8
CAR_FRAME
999
Primitive: car-upright-0-flange--1
0
POLYLINE
8
CAR_FRAME
6
CONTINUOUS
66
1
70
1
10
0
20
0
30
0
0
VERTEX
8
CAR_FRAME
10
-683
20
70
30
0
0
VERTEX
8
CAR_FRAME
10
-671
20
70
30
0
0
VERTEX
8
CAR_FRAME
10
-671
20
-58
30
0
0
VERTEX
8
CAR_FRAME
10
-683
20
-58
30
0
0
SEQEND
8
CAR_FRAME
999
Primitive: car-upright-0-flange-1
0
POLYLINE
8
CAR_FRAME
6
CONTINUOUS
66
1
70
1
10
0
20
0
30
0
0
VERTEX
8
CAR_FRAME
10
-615
20
70
30
0
0
VERTEX
8
CAR_FRAME
10
-603
20
70
30
0
0
VERTEX
8
CAR_FRAME
10
-603
20
-58
30
0
0
VERTEX
8
CAR_FRAME
10
-615
20
-58
30
0
0
SEQEND
8
CAR_FRAME
999
Primitive: car-upright-1-web
0
POLYLINE
8
CAR_FRAME
6
CONTINUOUS
66
1
70
1
10
0
20
0
30
0
0
VERTEX
8
CAR_FRAME
10
603
20
-58
30
0
0
VERTEX
8
CAR_FRAME
10
683
20
-58
30
0
0
VERTEX
8
CAR_FRAME
10
683
20
-70
30
0
0
VERTEX
8
CAR_FRAME
10
603
20
-70
30
0
0
SEQEND
8
CAR_FRAME
999
Primitive: car-upright-1-flange--1
0
POLYLINE
8
CAR_FRAME
6
CONTINUOUS
66
1
70
1
10
0
20
0
30
0
0
VERTEX
8
CAR_FRAME
10
603
20
70
30
0
0
VERTEX
8
CAR_FRAME
10
615
20
70
30
0
0
VERTEX
8
CAR_FRAME
10
615
20
-58
30
0
0
VERTEX
8
CAR_FRAME
10
603
20
-58
30
0
0
SEQEND
8
CAR_FRAME
999
Primitive: car-upright-1-flange-1
0
POLYLINE
8
CAR_FRAME
6
CONTINUOUS
66
1
70
1
10
0
20
0
30
0
0
VERTEX
8
CAR_FRAME
10
671
20
70
30
0
0
VERTEX
8
CAR_FRAME
10
683
20
70
30
0
0
VERTEX
8
CAR_FRAME
10
683
20
-58
30
0
0
VERTEX
8
CAR_FRAME
10
671
20
-58
30
0
0
SEQEND
8
CAR_FRAME
999
Primitive: car-crosshead
0
POLYLINE
8
CAR_FRAME
6
CONTINUOUS
66
1
70
1
10
0
20
0
30
0
0
VERTEX
8
CAR_FRAME
10
-683
20
70
30
0
0
VERTEX
8
CAR_FRAME
10
683
20
70
30
0
0
VERTEX
8
CAR_FRAME
10
683
20
-70
30
0
0
VERTEX
8
CAR_FRAME
10
-683
20
-70
30
0
0
SEQEND
8
CAR_FRAME
999
Primitive: car-lower-member
0
POLYLINE
8
CAR_FRAME
6
CONTINUOUS
66
1
70
1
10
0
20
0
30
0
0
VERTEX
8
CAR_FRAME
10
-683
20
70
30
0
0
VERTEX
8
CAR_FRAME
10
683
20
70
30
0
0
VERTEX
8
CAR_FRAME
10
683
20
-70
30
0
0
VERTEX
8
CAR_FRAME
10
-683
20
-70
30
0
0
SEQEND
8
CAR_FRAME
999
Primitive: car-platform-support-0
0
POLYLINE
8
CAR_FRAME
6
CONTINUOUS
66
1
70
1
10
0
20
0
30
0
0
VERTEX
8
CAR_FRAME
10
-683
20
700
30
0
0
VERTEX
8
CAR_FRAME
10
-603
20
700
30
0
0
VERTEX
8
CAR_FRAME
10
-603
20
-700
30
0
0
VERTEX
8
CAR_FRAME
10
-683
20
-700
30
0
0
SEQEND
8
CAR_FRAME
999
Primitive: car-platform-support-1
0
POLYLINE
8
CAR_FRAME
6
CONTINUOUS
66
1
70
1
10
0
20
0
30
0
0
VERTEX
8
CAR_FRAME
10
603
20
700
30
0
0
VERTEX
8
CAR_FRAME
10
683
20
700
30
0
0
VERTEX
8
CAR_FRAME
10
683
20
-700
30
0
0
VERTEX
8
CAR_FRAME
10
603
20
-700
30
0
0
SEQEND
8
CAR_FRAME
999
Primitive: car-rail-1-profile
0
POLYLINE
8
GUIDE_RAILS
6
CONTINUOUS
66
1
70
1
10
0
20
0
30
0
0
VERTEX
8
GUIDE_RAILS
10
-835
20
50
30
0
0
VERTEX
8
GUIDE_RAILS
10
-835
20
-50
30
0
0
VERTEX
8
GUIDE_RAILS
10
-823
20
-50
30
0
0
VERTEX
8
GUIDE_RAILS
10
-823
20
-6
30
0
0
VERTEX
8
GUIDE_RAILS
10
-768
20
-6
30
0
0
VERTEX
8
GUIDE_RAILS
10
-768
20
-16
30
0
0
VERTEX
8
GUIDE_RAILS
10
-750
20
-16
30
0
0
VERTEX
8
GUIDE_RAILS
10
-750
20
16
30
0
0
VERTEX
8
GUIDE_RAILS
10
-768
20
16
30
0
0
VERTEX
8
GUIDE_RAILS
10
-768
20
6
30
0
0
VERTEX
8
GUIDE_RAILS
10
-823
20
6
30
0
0
VERTEX
8
GUIDE_RAILS
10
-823
20
50
30
0
0
SEQEND
8
GUIDE_RAILS
999
Primitive: car-rail-2-profile
0
POLYLINE
8
GUIDE_RAILS
6
CONTINUOUS
66
1
70
1
10
0
20
0
30
0
0
VERTEX
8
GUIDE_RAILS
10
835
20
-50
30
0
0
VERTEX
8
GUIDE_RAILS
10
835
20
50
30
0
0
VERTEX
8
GUIDE_RAILS
10
823
20
50
30
0
0
VERTEX
8
GUIDE_RAILS
10
823
20
6
30
0
0
VERTEX
8
GUIDE_RAILS
10
768
20
6
30
0
0
VERTEX
8
GUIDE_RAILS
10
768
20
16
30
0
0
VERTEX
8
GUIDE_RAILS
10
750
20
16
30
0
0
VERTEX
8
GUIDE_RAILS
10
750
20
-16
30
0
0
VERTEX
8
GUIDE_RAILS
10
768
20
-16
30
0
0
VERTEX
8
GUIDE_RAILS
10
768
20
-6
30
0
0
VERTEX
8
GUIDE_RAILS
10
823
20
-6
30
0
0
VERTEX
8
GUIDE_RAILS
10
823
20
-50
30
0
0
SEQEND
8
GUIDE_RAILS
999
Primitive: car-rail-label-leader
0
LINE
8
ANNOTATIONS
6
CONTINUOUS
10
750
20
0
30
0
11
865
21
230
31
0
999
Primitive: car-rail-label
0
TEXT
8
ANNOTATIONS
6
CONTINUOUS
10
900
20
230
30
0
40
80
1
Fuehrungsschiene
7
STANDARD
999
Primitive: counterweight
0
POLYLINE
8
COUNTERWEIGHT
6
CONTINUOUS
66
1
70
1
10
0
20
0
30
0
0
VERTEX
8
COUNTERWEIGHT
10
-350
20
-1040
30
0
0
VERTEX
8
COUNTERWEIGHT
10
350
20
-1040
30
0
0
VERTEX
8
COUNTERWEIGHT
10
350
20
-1260
30
0
0
VERTEX
8
COUNTERWEIGHT
10
-350
20
-1260
30
0
0
SEQEND
8
COUNTERWEIGHT
999
Primitive: counterweight-side--1-web
0
POLYLINE
8
COUNTERWEIGHT
6
CONTINUOUS
66
1
70
1
10
0
20
0
30
0
0
VERTEX
8
COUNTERWEIGHT
10
-350
20
-1248
30
0
0
VERTEX
8
COUNTERWEIGHT
10
-290
20
-1248
30
0
0
VERTEX
8
COUNTERWEIGHT
10
-290
20
-1260
30
0
0
VERTEX
8
COUNTERWEIGHT
10
-350
20
-1260
30
0
0
SEQEND
8
COUNTERWEIGHT
999
Primitive: counterweight-side--1-flange--1
0
POLYLINE
8
COUNTERWEIGHT
6
CONTINUOUS
66
1
70
1
10
0
20
0
30
0
0
VERTEX
8
COUNTERWEIGHT
10
-350
20
-1040
30
0
0
VERTEX
8
COUNTERWEIGHT
10
-338
20
-1040
30
0
0
VERTEX
8
COUNTERWEIGHT
10
-338
20
-1248
30
0
0
VERTEX
8
COUNTERWEIGHT
10
-350
20
-1248
30
0
0
SEQEND
8
COUNTERWEIGHT
999
Primitive: counterweight-side--1-flange-1
0
POLYLINE
8
COUNTERWEIGHT
6
CONTINUOUS
66
1
70
1
10
0
20
0
30
0
0
VERTEX
8
COUNTERWEIGHT
10
-302
20
-1040
30
0
0
VERTEX
8
COUNTERWEIGHT
10
-290
20
-1040
30
0
0
VERTEX
8
COUNTERWEIGHT
10
-290
20
-1248
30
0
0
VERTEX
8
COUNTERWEIGHT
10
-302
20
-1248
30
0
0
SEQEND
8
COUNTERWEIGHT
999
Primitive: counterweight-crossmember--1
0
POLYLINE
8
COUNTERWEIGHT
6
CONTINUOUS
66
1
70
1
10
0
20
0
30
0
0
VERTEX
8
COUNTERWEIGHT
10
-350
20
-1040
30
0
0
VERTEX
8
COUNTERWEIGHT
10
350
20
-1040
30
0
0
VERTEX
8
COUNTERWEIGHT
10
350
20
-1260
30
0
0
VERTEX
8
COUNTERWEIGHT
10
-350
20
-1260
30
0
0
SEQEND
8
COUNTERWEIGHT
999
Primitive: counterweight-side-1-web
0
POLYLINE
8
COUNTERWEIGHT
6
CONTINUOUS
66
1
70
1
10
0
20
0
30
0
0
VERTEX
8
COUNTERWEIGHT
10
290
20
-1248
30
0
0
VERTEX
8
COUNTERWEIGHT
10
350
20
-1248
30
0
0
VERTEX
8
COUNTERWEIGHT
10
350
20
-1260
30
0
0
VERTEX
8
COUNTERWEIGHT
10
290
20
-1260
30
0
0
SEQEND
8
COUNTERWEIGHT
999
Primitive: counterweight-side-1-flange--1
0
POLYLINE
8
COUNTERWEIGHT
6
CONTINUOUS
66
1
70
1
10
0
20
0
30
0
0
VERTEX
8
COUNTERWEIGHT
10
290
20
-1040
30
0
0
VERTEX
8
COUNTERWEIGHT
10
302
20
-1040
30
0
0
VERTEX
8
COUNTERWEIGHT
10
302
20
-1248
30
0
0
VERTEX
8
COUNTERWEIGHT
10
290
20
-1248
30
0
0
SEQEND
8
COUNTERWEIGHT
999
Primitive: counterweight-side-1-flange-1
0
POLYLINE
8
COUNTERWEIGHT
6
CONTINUOUS
66
1
70
1
10
0
20
0
30
0
0
VERTEX
8
COUNTERWEIGHT
10
338
20
-1040
30
0
0
VERTEX
8
COUNTERWEIGHT
10
350
20
-1040
30
0
0
VERTEX
8
COUNTERWEIGHT
10
350
20
-1248
30
0
0
VERTEX
8
COUNTERWEIGHT
10
338
20
-1248
30
0
0
SEQEND
8
COUNTERWEIGHT
999
Primitive: counterweight-crossmember-1
0
POLYLINE
8
COUNTERWEIGHT
6
CONTINUOUS
66
1
70
1
10
0
20
0
30
0
0
VERTEX
8
COUNTERWEIGHT
10
-350
20
-1040
30
0
0
VERTEX
8
COUNTERWEIGHT
10
350
20
-1040
30
0
0
VERTEX
8
COUNTERWEIGHT
10
350
20
-1260
30
0
0
VERTEX
8
COUNTERWEIGHT
10
-350
20
-1260
30
0
0
SEQEND
8
COUNTERWEIGHT
999
Primitive: counterweight-stack
0
POLYLINE
8
COUNTERWEIGHT
6
HIDDEN
66
1
70
1
10
0
20
0
30
0
0
VERTEX
8
COUNTERWEIGHT
10
-290
20
-1040
30
0
0
VERTEX
8
COUNTERWEIGHT
10
290
20
-1040
30
0
0
VERTEX
8
COUNTERWEIGHT
10
290
20
-1248
30
0
0
VERTEX
8
COUNTERWEIGHT
10
-290
20
-1248
30
0
0
SEQEND
8
COUNTERWEIGHT
999
Primitive: counterweight-label-leader
0
LINE
8
ANNOTATIONS
6
CONTINUOUS
10
0
20
-1260
30
0
11
0
21
-1410
31
0
999
Primitive: counterweight-label
0
TEXT
8
ANNOTATIONS
6
CONTINUOUS
10
0
20
-1410
30
0
40
110
1
Gegengewicht
7
STANDARD
72
1
11
0
21
-1410
31
0
999
Primitive: counterweight-rail-1-profile
0
POLYLINE
8
GUIDE_RAILS
6
CONTINUOUS
66
1
70
1
10
0
20
0
30
0
0
VERTEX
8
GUIDE_RAILS
10
-535
20
-1100
30
0
0
VERTEX
8
GUIDE_RAILS
10
-535
20
-1200
30
0
0
VERTEX
8
GUIDE_RAILS
10
-523
20
-1200
30
0
0
VERTEX
8
GUIDE_RAILS
10
-523
20
-1156
30
0
0
VERTEX
8
GUIDE_RAILS
10
-468
20
-1156
30
0
0
VERTEX
8
GUIDE_RAILS
10
-468
20
-1166
30
0
0
VERTEX
8
GUIDE_RAILS
10
-450
20
-1166
30
0
0
VERTEX
8
GUIDE_RAILS
10
-450
20
-1134
30
0
0
VERTEX
8
GUIDE_RAILS
10
-468
20
-1134
30
0
0
VERTEX
8
GUIDE_RAILS
10
-468
20
-1144
30
0
0
VERTEX
8
GUIDE_RAILS
10
-523
20
-1144
30
0
0
VERTEX
8
GUIDE_RAILS
10
-523
20
-1100
30
0
0
SEQEND
8
GUIDE_RAILS
999
Primitive: counterweight-rail-2-profile
0
POLYLINE
8
GUIDE_RAILS
6
CONTINUOUS
66
1
70
1
10
0
20
0
30
0
0
VERTEX
8
GUIDE_RAILS
10
535
20
-1200
30
0
0
VERTEX
8
GUIDE_RAILS
10
535
20
-1100
30
0
0
VERTEX
8
GUIDE_RAILS
10
523
20
-1100
30
0
0
VERTEX
8
GUIDE_RAILS
10
523
20
-1144
30
0
0
VERTEX
8
GUIDE_RAILS
10
468
20
-1144
30
0
0
VERTEX
8
GUIDE_RAILS
10
468
20
-1134
30
0
0
VERTEX
8
GUIDE_RAILS
10
450
20
-1134
30
0
0
VERTEX
8
GUIDE_RAILS
10
450
20
-1166
30
0
0
VERTEX
8
GUIDE_RAILS
10
468
20
-1166
30
0
0
VERTEX
8
GUIDE_RAILS
10
468
20
-1156
30
0
0
VERTEX
8
GUIDE_RAILS
10
523
20
-1156
30
0
0
VERTEX
8
GUIDE_RAILS
10
523
20
-1200
30
0
0
SEQEND
8
GUIDE_RAILS
999
Primitive: cabin-front-opening
0
LINE
8
DOORS
6
CONTINUOUS
10
-450
20
700
30
0
11
450
21
700
31
0
999
Primitive: cabin-front-axis
0
LINE
8
CENTERLINES
6
CENTER
10
0
20
1060
30
0
11
0
21
540
31
0
999
Primitive: cabin-front-panel-1
0
POLYLINE
8
DOORS
6
CONTINUOUS
66
1
70
1
10
0
20
0
30
0
0
VERTEX
8
DOORS
10
-450
20
752
30
0
0
VERTEX
8
DOORS
10
0
20
752
30
0
0
VERTEX
8
DOORS
10
0
20
728
30
0
0
VERTEX
8
DOORS
10
-450
20
728
30
0
0
SEQEND
8
DOORS
999
Primitive: cabin-front-panel-2
0
POLYLINE
8
DOORS
6
CONTINUOUS
66
1
70
1
10
0
20
0
30
0
0
VERTEX
8
DOORS
10
0
20
752
30
0
0
VERTEX
8
DOORS
10
450
20
752
30
0
0
VERTEX
8
DOORS
10
450
20
728
30
0
0
VERTEX
8
DOORS
10
0
20
728
30
0
0
SEQEND
8
DOORS
999
Primitive: cabin-front-jamb--1
0
POLYLINE
8
DOORS
6
CONTINUOUS
66
1
70
1
10
0
20
0
30
0
0
VERTEX
8
DOORS
10
-500
20
730
30
0
0
VERTEX
8
DOORS
10
-450
20
730
30
0
0
VERTEX
8
DOORS
10
-450
20
670
30
0
0
VERTEX
8
DOORS
10
-500
20
670
30
0
0
SEQEND
8
DOORS
999
Primitive: cabin-front-jamb-1
0
POLYLINE
8
DOORS
6
CONTINUOUS
66
1
70
1
10
0
20
0
30
0
0
VERTEX
8
DOORS
10
450
20
730
30
0
0
VERTEX
8
DOORS
10
500
20
730
30
0
0
VERTEX
8
DOORS
10
500
20
670
30
0
0
VERTEX
8
DOORS
10
450
20
670
30
0
0
SEQEND
8
DOORS
999
Primitive: cabin-front-header
0
POLYLINE
8
DOORS
6
CONTINUOUS
66
1
70
1
10
0
20
0
30
0
0
VERTEX
8
DOORS
10
-500
20
730
30
0
0
VERTEX
8
DOORS
10
500
20
730
30
0
0
VERTEX
8
DOORS
10
500
20
670
30
0
0
VERTEX
8
DOORS
10
-500
20
670
30
0
0
SEQEND
8
DOORS
999
Primitive: cabin-front-sill-strip-0
0
POLYLINE
8
DOORS
6
CONTINUOUS
66
1
70
1
10
0
20
0
30
0
0
VERTEX
8
DOORS
10
-500
20
735
30
0
0
VERTEX
8
DOORS
10
500
20
735
30
0
0
VERTEX
8
DOORS
10
500
20
700
30
0
0
VERTEX
8
DOORS
10
-500
20
700
30
0
0
SEQEND
8
DOORS
999
Primitive: cabin-front-sill-strip-1
0
POLYLINE
8
DOORS
6
CONTINUOUS
66
1
70
1
10
0
20
0
30
0
0
VERTEX
8
DOORS
10
-500
20
745
30
0
0
VERTEX
8
DOORS
10
500
20
745
30
0
0
VERTEX
8
DOORS
10
500
20
735
30
0
0
VERTEX
8
DOORS
10
-500
20
735
30
0
0
SEQEND
8
DOORS
999
Primitive: cabin-front-sill-strip-2
0
POLYLINE
8
DOORS
6
CONTINUOUS
66
1
70
1
10
0
20
0
30
0
0
VERTEX
8
DOORS
10
-500
20
780
30
0
0
VERTEX
8
DOORS
10
500
20
780
30
0
0
VERTEX
8
DOORS
10
500
20
745
30
0
0
VERTEX
8
DOORS
10
-500
20
745
30
0
0
SEQEND
8
DOORS
999
Primitive: landing-front-level-1-panel-1
0
POLYLINE
8
DOORS
6
CONTINUOUS
66
1
70
1
10
0
20
0
30
0
0
VERTEX
8
DOORS
10
-450
20
887
30
0
0
VERTEX
8
DOORS
10
0
20
887
30
0
0
VERTEX
8
DOORS
10
0
20
863
30
0
0
VERTEX
8
DOORS
10
-450
20
863
30
0
0
SEQEND
8
DOORS
999
Primitive: landing-front-level-1-panel-2
0
POLYLINE
8
DOORS
6
CONTINUOUS
66
1
70
1
10
0
20
0
30
0
0
VERTEX
8
DOORS
10
0
20
887
30
0
0
VERTEX
8
DOORS
10
450
20
887
30
0
0
VERTEX
8
DOORS
10
450
20
863
30
0
0
VERTEX
8
DOORS
10
0
20
863
30
0
0
SEQEND
8
DOORS
999
Primitive: landing-front-level-1-jamb--1
0
POLYLINE
8
DOORS
6
CONTINUOUS
66
1
70
1
10
0
20
0
30
0
0
VERTEX
8
DOORS
10
-500
20
925
30
0
0
VERTEX
8
DOORS
10
-450
20
925
30
0
0
VERTEX
8
DOORS
10
-450
20
905
30
0
0
VERTEX
8
DOORS
10
-500
20
905
30
0
0
SEQEND
8
DOORS
999
Primitive: landing-front-level-1-jamb-1
0
POLYLINE
8
DOORS
6
CONTINUOUS
66
1
70
1
10
0
20
0
30
0
0
VERTEX
8
DOORS
10
450
20
925
30
0
0
VERTEX
8
DOORS
10
500
20
925
30
0
0
VERTEX
8
DOORS
10
500
20
905
30
0
0
VERTEX
8
DOORS
10
450
20
905
30
0
0
SEQEND
8
DOORS
999
Primitive: landing-front-level-1-header
0
POLYLINE
8
DOORS
6
CONTINUOUS
66
1
70
1
10
0
20
0
30
0
0
VERTEX
8
DOORS
10
-500
20
925
30
0
0
VERTEX
8
DOORS
10
500
20
925
30
0
0
VERTEX
8
DOORS
10
500
20
905
30
0
0
VERTEX
8
DOORS
10
-500
20
905
30
0
0
SEQEND
8
DOORS
999
Primitive: landing-front-level-1-sill-strip-0
0
POLYLINE
8
DOORS
6
CONTINUOUS
66
1
70
1
10
0
20
0
30
0
0
VERTEX
8
DOORS
10
-500
20
870
30
0
0
VERTEX
8
DOORS
10
500
20
870
30
0
0
VERTEX
8
DOORS
10
500
20
820
30
0
0
VERTEX
8
DOORS
10
-500
20
820
30
0
0
SEQEND
8
DOORS
999
Primitive: landing-front-level-1-sill-strip-1
0
POLYLINE
8
DOORS
6
CONTINUOUS
66
1
70
1
10
0
20
0
30
0
0
VERTEX
8
DOORS
10
-500
20
880
30
0
0
VERTEX
8
DOORS
10
500
20
880
30
0
0
VERTEX
8
DOORS
10
500
20
870
30
0
0
VERTEX
8
DOORS
10
-500
20
870
30
0
0
SEQEND
8
DOORS
999
Primitive: landing-front-level-1-sill-strip-2
0
POLYLINE
8
DOORS
6
CONTINUOUS
66
1
70
1
10
0
20
0
30
0
0
VERTEX
8
DOORS
10
-500
20
900
30
0
0
VERTEX
8
DOORS
10
500
20
900
30
0
0
VERTEX
8
DOORS
10
500
20
880
30
0
0
VERTEX
8
DOORS
10
-500
20
880
30
0
0
SEQEND
8
DOORS
999
Primitive: shaft-width
0
LINE
8
DIMENSIONS
6
CONTINUOUS
10
-1300
20
-1500
30
0
11
-1300
21
-1800
31
0
0
LINE
8
DIMENSIONS
6
CONTINUOUS
10
1300
20
-1500
30
0
11
1300
21
-1800
31
0
0
LINE
8
DIMENSIONS
6
CONTINUOUS
10
-1300
20
-1800
30
0
11
1300
21
-1800
31
0
0
LINE
8
DIMENSIONS
6
CONTINUOUS
10
-1300
20
-1800
30
0
11
-1240
21
-1779
31
0
0
LINE
8
DIMENSIONS
6
CONTINUOUS
10
-1300
20
-1800
30
0
11
-1240
21
-1821
31
0
0
LINE
8
DIMENSIONS
6
CONTINUOUS
10
1300
20
-1800
30
0
11
1240
21
-1821
31
0
0
LINE
8
DIMENSIONS
6
CONTINUOUS
10
1300
20
-1800
30
0
11
1240
21
-1779
31
0
0
TEXT
8
DIMENSIONS
6
CONTINUOUS
10
0
20
-1745
30
0
40
100
1
2600 mm
7
STANDARD
72
1
11
0
21
-1745
31
0
999
Primitive: shaft-depth
0
LINE
8
DIMENSIONS
6
CONTINUOUS
10
1300
20
1500
30
0
11
1600
21
1500
31
0
0
LINE
8
DIMENSIONS
6
CONTINUOUS
10
1300
20
-1500
30
0
11
1600
21
-1500
31
0
0
LINE
8
DIMENSIONS
6
CONTINUOUS
10
1600
20
1500
30
0
11
1600
21
-1500
31
0
0
LINE
8
DIMENSIONS
6
CONTINUOUS
10
1600
20
1500
30
0
11
1621
21
1440
31
0
0
LINE
8
DIMENSIONS
6
CONTINUOUS
10
1600
20
1500
30
0
11
1579
21
1440
31
0
0
LINE
8
DIMENSIONS
6
CONTINUOUS
10
1600
20
-1500
30
0
11
1579
21
-1440
31
0
0
LINE
8
DIMENSIONS
6
CONTINUOUS
10
1600
20
-1500
30
0
11
1621
21
-1440
31
0
0
TEXT
8
DIMENSIONS
6
CONTINUOUS
10
1655
20
0
30
0
40
100
1
3000 mm
7
STANDARD
72
1
11
1655
21
0
31
0
999
Primitive: cabin-width
0
LINE
8
DIMENSIONS
6
CONTINUOUS
10
-550
20
700
30
0
11
-550
21
1240
31
0
0
LINE
8
DIMENSIONS
6
CONTINUOUS
10
550
20
700
30
0
11
550
21
1240
31
0
0
LINE
8
DIMENSIONS
6
CONTINUOUS
10
-550
20
1240
30
0
11
550
21
1240
31
0
0
LINE
8
DIMENSIONS
6
CONTINUOUS
10
-550
20
1240
30
0
11
-490
21
1261
31
0
0
LINE
8
DIMENSIONS
6
CONTINUOUS
10
-550
20
1240
30
0
11
-490
21
1219
31
0
0
LINE
8
DIMENSIONS
6
CONTINUOUS
10
550
20
1240
30
0
11
490
21
1219
31
0
0
LINE
8
DIMENSIONS
6
CONTINUOUS
10
550
20
1240
30
0
11
490
21
1261
31
0
0
TEXT
8
DIMENSIONS
6
CONTINUOUS
10
0
20
1295
30
0
40
100
1
1100 mm
7
STANDARD
72
1
11
0
21
1295
31
0
999
Primitive: cabin-depth
0
LINE
8
DIMENSIONS
6
CONTINUOUS
10
-550
20
700
30
0
11
-850
21
700
31
0
0
LINE
8
DIMENSIONS
6
CONTINUOUS
10
-550
20
-700
30
0
11
-850
21
-700
31
0
0
LINE
8
DIMENSIONS
6
CONTINUOUS
10
-850
20
700
30
0
11
-850
21
-700
31
0
0
LINE
8
DIMENSIONS
6
CONTINUOUS
10
-850
20
700
30
0
11
-829
21
640
31
0
0
LINE
8
DIMENSIONS
6
CONTINUOUS
10
-850
20
700
30
0
11
-871
21
640
31
0
0
LINE
8
DIMENSIONS
6
CONTINUOUS
10
-850
20
-700
30
0
11
-871
21
-640
31
0
0
LINE
8
DIMENSIONS
6
CONTINUOUS
10
-850
20
-700
30
0
11
-829
21
-640
31
0
0
TEXT
8
DIMENSIONS
6
CONTINUOUS
10
-795
20
0
30
0
40
100
1
1400 mm
7
STANDARD
72
1
11
-795
21
0
31
0
999
Primitive: door-width
0
LINE
8
DIMENSIONS
6
CONTINUOUS
10
-450
20
700
30
0
11
-450
21
980
31
0
0
LINE
8
DIMENSIONS
6
CONTINUOUS
10
450
20
700
30
0
11
450
21
980
31
0
0
LINE
8
DIMENSIONS
6
CONTINUOUS
10
-450
20
980
30
0
11
450
21
980
31
0
0
LINE
8
DIMENSIONS
6
CONTINUOUS
10
-450
20
980
30
0
11
-390
21
1001
31
0
0
LINE
8
DIMENSIONS
6
CONTINUOUS
10
-450
20
980
30
0
11
-390
21
959
31
0
0
LINE
8
DIMENSIONS
6
CONTINUOUS
10
450
20
980
30
0
11
390
21
959
31
0
0
LINE
8
DIMENSIONS
6
CONTINUOUS
10
450
20
980
30
0
11
390
21
1001
31
0
0
TEXT
8
DIMENSIONS
6
CONTINUOUS
10
0
20
1035
30
0
40
100
1
900 mm
7
STANDARD
72
1
11
0
21
1035
31
0
0
ENDSEC
0
EOF
