999
LiftPlan technical drawing export
999
Planning representation without proof of technical or regulatory conformity
999
Project: Mechanische Demo - Testdaten
999
Project ID: LP-DXF-QA
999
LiftPlan version: liftplan-project-v1
999
Export date: 2026-10-05
999
Model-space unit: millimetres
999
Drawing set: Tueransicht
0
SECTION
2
HEADER
9
$ACADVER
1
AC1009
9
$DWGCODEPAGE
3
ANSI_1252
9
$LUNITS
70
2
9
$LUPREC
70
4
9
$MEASUREMENT
70
1
9
$EXTMIN
10
-1155.3
20
-420
30
0
9
$EXTMAX
10
1155.3
20
2585
30
0
0
ENDSEC
0
SECTION
2
TABLES
0
TABLE
2
LTYPE
70
3
0
LTYPE
2
CONTINUOUS
70
0
3
Solid line
72
65
73
0
40
0
0
LTYPE
2
CENTER
70
0
3
Center ____ _ ____ _ ____
72
65
73
4
40
175
49
100
49
-25
49
25
49
-25
0
LTYPE
2
HIDDEN
70
0
3
Hidden __ __ __ __
72
65
73
2
40
100
49
75
49
-25
0
ENDTAB
0
TABLE
2
LAYER
70
13
0
LAYER
2
0
70
0
62
7
6
CONTINUOUS
0
LAYER
2
SHAFT
70
0
62
7
6
CONTINUOUS
0
LAYER
2
CABIN
70
0
62
1
6
CONTINUOUS
0
LAYER
2
CAR_FRAME
70
0
62
3
6
CONTINUOUS
0
LAYER
2
GUIDE_RAILS
70
0
62
4
6
CONTINUOUS
0
LAYER
2
COUNTERWEIGHT
70
0
62
6
6
CONTINUOUS
0
LAYER
2
DOORS
70
0
62
2
6
CONTINUOUS
0
LAYER
2
MACHINE
70
0
62
5
6
CONTINUOUS
0
LAYER
2
BUFFERS
70
0
62
30
6
CONTINUOUS
0
LAYER
2
ROPES
70
0
62
8
6
HIDDEN
0
LAYER
2
DIMENSIONS
70
0
62
7
6
CONTINUOUS
0
LAYER
2
CENTERLINES
70
0
62
8
6
CENTER
0
LAYER
2
ANNOTATIONS
70
0
62
7
6
CONTINUOUS
0
ENDTAB
0
TABLE
2
STYLE
70
1
0
STYLE
2
STANDARD
70
0
40
0
41
1
50
0
71
0
42
100
3
txt
4

0
ENDTAB
0
ENDSEC
0
SECTION
2
BLOCKS
0
BLOCK
8
0
2
*MODEL_SPACE
70
0
10
0
20
0
30
0
3
*MODEL_SPACE
1

0
ENDBLK
8
0
0
BLOCK
8
0
2
*PAPER_SPACE
70
0
10
0
20
0
30
0
3
*PAPER_SPACE
1

0
ENDBLK
8
0
0
ENDSEC
0
SECTION
2
ENTITIES
999
Primitive: door-opening
0
POLYLINE
8
DOORS
6
CONTINUOUS
66
1
70
1
10
0
20
0
30
0
0
VERTEX
8
DOORS
10
-450
20
2100
30
0
0
VERTEX
8
DOORS
10
450
20
2100
30
0
0
VERTEX
8
DOORS
10
450
20
0
30
0
0
VERTEX
8
DOORS
10
-450
20
0
30
0
0
SEQEND
8
DOORS
999
Primitive: door-axis
0
LINE
8
CENTERLINES
6
CENTER
10
0
20
2280
30
0
11
0
21
-140
31
0
999
Primitive: door-threshold-reference
0
LINE
8
CENTERLINES
6
CENTER
10
-690
20
0
30
0
11
690
21
0
31
0
999
Primitive: landing-front-level-1-panel-1
0
POLYLINE
8
DOORS
6
CONTINUOUS
66
1
70
1
10
0
20
0
30
0
0
VERTEX
8
DOORS
10
-450
20
2100
30
0
0
VERTEX
8
DOORS
10
0
20
2100
30
0
0
VERTEX
8
DOORS
10
0
20
0
30
0
0
VERTEX
8
DOORS
10
-450
20
0
30
0
0
SEQEND
8
DOORS
999
Primitive: landing-front-level-1-panel-2
0
POLYLINE
8
DOORS
6
CONTINUOUS
66
1
70
1
10
0
20
0
30
0
0
VERTEX
8
DOORS
10
0
20
2100
30
0
0
VERTEX
8
DOORS
10
450
20
2100
30
0
0
VERTEX
8
DOORS
10
450
20
0
30
0
0
VERTEX
8
DOORS
10
0
20
0
30
0
0
SEQEND
8
DOORS
999
Primitive: landing-front-level-1-jamb--1
0
POLYLINE
8
DOORS
6
CONTINUOUS
66
1
70
1
10
0
20
0
30
0
0
VERTEX
8
DOORS
10
-500
20
2100
30
0
0
VERTEX
8
DOORS
10
-450
20
2100
30
0
0
VERTEX
8
DOORS
10
-450
20
0
30
0
0
VERTEX
8
DOORS
10
-500
20
0
30
0
0
SEQEND
8
DOORS
999
Primitive: landing-front-level-1-jamb-1
0
POLYLINE
8
DOORS
6
CONTINUOUS
66
1
70
1
10
0
20
0
30
0
0
VERTEX
8
DOORS
10
450
20
2100
30
0
0
VERTEX
8
DOORS
10
500
20
2100
30
0
0
VERTEX
8
DOORS
10
500
20
0
30
0
0
VERTEX
8
DOORS
10
450
20
0
30
0
0
SEQEND
8
DOORS
999
Primitive: landing-front-level-1-header
0
POLYLINE
8
DOORS
6
CONTINUOUS
66
1
70
1
10
0
20
0
30
0
0
VERTEX
8
DOORS
10
-500
20
2180
30
0
0
VERTEX
8
DOORS
10
500
20
2180
30
0
0
VERTEX
8
DOORS
10
500
20
2100
30
0
0
VERTEX
8
DOORS
10
-500
20
2100
30
0
0
SEQEND
8
DOORS
999
Primitive: landing-front-level-1-sill-strip-0
0
POLYLINE
8
DOORS
6
CONTINUOUS
66
1
70
1
10
0
20
0
30
0
0
VERTEX
8
DOORS
10
-500
20
0
30
0
0
VERTEX
8
DOORS
10
500
20
0
30
0
0
VERTEX
8
DOORS
10
500
20
-30
30
0
0
VERTEX
8
DOORS
10
-500
20
-30
30
0
0
SEQEND
8
DOORS
999
Primitive: landing-front-level-1-sill-strip-1
0
POLYLINE
8
DOORS
6
CONTINUOUS
66
1
70
1
10
0
20
0
30
0
0
VERTEX
8
DOORS
10
-500
20
-8
30
0
0
VERTEX
8
DOORS
10
500
20
-8
30
0
0
VERTEX
8
DOORS
10
500
20
-30
30
0
0
VERTEX
8
DOORS
10
-500
20
-30
30
0
0
SEQEND
8
DOORS
999
Primitive: landing-front-level-1-sill-strip-2
0
POLYLINE
8
DOORS
6
CONTINUOUS
66
1
70
1
10
0
20
0
30
0
0
VERTEX
8
DOORS
10
-500
20
0
30
0
0
VERTEX
8
DOORS
10
500
20
0
30
0
0
VERTEX
8
DOORS
10
500
20
-30
30
0
0
VERTEX
8
DOORS
10
-500
20
-30
30
0
0
SEQEND
8
DOORS
999
Primitive: landing-front-level-1-track
0
POLYLINE
8
DOORS
6
CONTINUOUS
66
1
70
1
10
0
20
0
30
0
0
VERTEX
8
DOORS
10
-550
20
2189
30
0
0
VERTEX
8
DOORS
10
550
20
2189
30
0
0
VERTEX
8
DOORS
10
550
20
2185
30
0
0
VERTEX
8
DOORS
10
-550
20
2185
30
0
0
SEQEND
8
DOORS
999
Primitive: landing-front-level-1-track-mount-mount--480
0
POLYLINE
8
DOORS
6
CONTINUOUS
66
1
70
1
10
0
20
0
30
0
0
VERTEX
8
DOORS
10
-490
20
2189
30
0
0
VERTEX
8
DOORS
10
-470
20
2189
30
0
0
VERTEX
8
DOORS
10
-470
20
2175
30
0
0
VERTEX
8
DOORS
10
-490
20
2175
30
0
0
SEQEND
8
DOORS
999
Primitive: landing-front-level-1-track-mount-mount-480
0
POLYLINE
8
DOORS
6
CONTINUOUS
66
1
70
1
10
0
20
0
30
0
0
VERTEX
8
DOORS
10
470
20
2189
30
0
0
VERTEX
8
DOORS
10
490
20
2189
30
0
0
VERTEX
8
DOORS
10
490
20
2175
30
0
0
VERTEX
8
DOORS
10
470
20
2175
30
0
0
SEQEND
8
DOORS
999
Primitive: door-elevation-width
0
LINE
8
DIMENSIONS
6
CONTINUOUS
10
-450
20
0
30
0
11
-450
21
-300
31
0
0
LINE
8
DIMENSIONS
6
CONTINUOUS
10
450
20
0
30
0
11
450
21
-300
31
0
0
LINE
8
DIMENSIONS
6
CONTINUOUS
10
-450
20
-300
30
0
11
450
21
-300
31
0
0
LINE
8
DIMENSIONS
6
CONTINUOUS
10
-450
20
-300
30
0
11
-390
21
-279
31
0
0
LINE
8
DIMENSIONS
6
CONTINUOUS
10
-450
20
-300
30
0
11
-390
21
-321
31
0
0
LINE
8
DIMENSIONS
6
CONTINUOUS
10
450
20
-300
30
0
11
390
21
-321
31
0
0
LINE
8
DIMENSIONS
6
CONTINUOUS
10
450
20
-300
30
0
11
390
21
-279
31
0
0
TEXT
8
DIMENSIONS
6
CONTINUOUS
10
0
20
-245
30
0
40
100
1
900 mm
7
STANDARD
72
1
11
0
21
-245
31
0
999
Primitive: door-elevation-height
0
LINE
8
DIMENSIONS
6
CONTINUOUS
10
450
20
2100
30
0
11
750
21
2100
31
0
0
LINE
8
DIMENSIONS
6
CONTINUOUS
10
450
20
0
30
0
11
750
21
0
31
0
0
LINE
8
DIMENSIONS
6
CONTINUOUS
10
750
20
2100
30
0
11
750
21
0
31
0
0
LINE
8
DIMENSIONS
6
CONTINUOUS
10
750
20
2100
30
0
11
771
21
2040
31
0
0
LINE
8
DIMENSIONS
6
CONTINUOUS
10
750
20
2100
30
0
11
729
21
2040
31
0
0
LINE
8
DIMENSIONS
6
CONTINUOUS
10
750
20
0
30
0
11
729
21
60
31
0
0
LINE
8
DIMENSIONS
6
CONTINUOUS
10
750
20
0
30
0
11
771
21
60
31
0
0
TEXT
8
DIMENSIONS
6
CONTINUOUS
10
805
20
1050
30
0
40
100
1
2100 mm
7
STANDARD
72
1
11
805
21
1050
31
0
999
Primitive: door-title
0
TEXT
8
ANNOTATIONS
6
CONTINUOUS
10
0
20
2360
30
0
40
105
1
Schachttuer - Haltestelle 1 - Vorne
7
STANDARD
72
1
11
0
21
2360
31
0
0
ENDSEC
0
EOF
